<svg width="48" height="49" viewBox="0 0 48 49" fill="none" xmlns="http://www.w3.org/2000/svg">
<g clip-path="url(#clip0_34_1121)">
<path d="M28.8486 44.2194C28.4528 44.318 28.0493 44.4056 27.6487 44.4794C26.6016 44.6741 25.9094 45.6812 26.103 46.7292C26.1987 47.2448 26.4915 47.6742 26.8891 47.9546C27.2988 48.243 27.8203 48.3732 28.3517 48.2743C28.8287 48.1858 29.3094 48.0817 29.7811 47.964C30.8151 47.7066 31.4451 46.6591 31.1871 45.6257C30.9298 44.5913 29.8832 43.9619 28.8486 44.2194Z" fill="url(#paint0_linear_34_1121)"/>
<path d="M43.1181 18.3552C43.2533 18.7626 43.5113 19.0952 43.8373 19.3249C44.3206 19.6653 44.953 19.7799 45.5565 19.5803C46.5683 19.2444 47.1165 18.1533 46.7818 17.142C46.6293 16.681 46.4601 16.2186 46.2798 15.7683C45.884 14.7788 44.7616 14.297 43.7716 14.6928C42.7826 15.0884 42.3006 16.2111 42.6967 17.201C42.8482 17.5794 42.9901 17.9679 43.1181 18.3552Z" fill="url(#paint1_linear_34_1121)"/>
<path d="M35.1188 41.4644C34.7784 41.6891 34.4271 41.9066 34.0731 42.1104C33.1498 42.643 32.8335 43.8233 33.3659 44.7462C33.5105 44.9973 33.703 45.2025 33.9248 45.3594C34.52 45.7782 35.3284 45.8409 36.0015 45.4531C36.4223 45.2105 36.8407 44.9523 37.2461 44.6842C38.1349 44.097 38.3795 42.8998 37.792 42.0106C37.2046 41.1211 36.0079 40.8767 35.1188 41.4644Z" fill="url(#paint2_linear_34_1121)"/>
<path d="M47.9815 23.7446C47.9395 22.6796 47.0424 21.8506 45.9771 21.8922C44.9131 21.9342 44.0835 22.8315 44.1253 23.8962C44.1413 24.3032 44.1454 24.7164 44.136 25.123C44.1211 25.7909 44.4477 26.3863 44.9554 26.7441C45.2578 26.9571 45.6248 27.0859 46.0228 27.095C47.0878 27.1186 47.9705 26.2739 47.9941 25.2083C48.0047 24.7225 48.0007 24.2302 47.9815 23.7446Z" fill="url(#paint3_linear_34_1121)"/>
<path d="M42.8033 36.3881C41.9493 35.7474 40.741 35.9213 40.1014 36.7738C39.8564 37.1003 39.5985 37.4227 39.3344 37.7332C38.6441 38.5442 38.7416 39.7624 39.5526 40.4532C39.5988 40.4924 39.6455 40.5284 39.694 40.5622C40.5003 41.1307 41.6209 41 42.2728 40.2351C42.5882 39.8646 42.8957 39.4795 43.1884 39.0895C43.8281 38.237 43.655 37.028 42.8033 36.3881Z" fill="url(#paint4_linear_34_1121)"/>
<path d="M45.6397 29.4128C44.6228 29.0939 43.5399 29.66 43.2213 30.6768C43.0993 31.0653 42.9642 31.4557 42.8183 31.8379C42.4979 32.6795 42.8048 33.6054 43.5085 34.1016C43.6376 34.1923 43.7798 34.2692 43.9343 34.3276C44.9299 34.7075 46.0447 34.208 46.4242 33.212C46.5975 32.7575 46.7582 32.2931 46.9036 31.8312C47.2219 30.8142 46.6563 29.7316 45.6397 29.4128Z" fill="url(#paint5_linear_34_1121)"/>
<path d="M20.4298 44.4968C18.7046 44.187 17.0497 43.6595 15.4804 42.9239C15.4618 42.9142 15.4452 42.9031 15.4257 42.8943C15.0559 42.7202 14.6867 42.5337 14.3289 42.3389C14.3276 42.3375 14.3254 42.3366 14.3234 42.3357C13.6669 41.9742 13.0261 41.5742 12.4036 41.1359C3.32653 34.7418 1.14404 22.1549 7.5386 13.0779C8.92908 11.1049 10.6118 9.45883 12.4877 8.1542C12.5108 8.13811 12.5339 8.12211 12.5568 8.10591C19.1674 3.55107 28.1434 3.24411 35.1628 7.92462L33.6552 10.1029C33.236 10.7092 33.4939 11.151 34.2276 11.085L40.7762 10.4987C41.5109 10.4327 41.9502 9.79716 41.7526 9.08768L39.9941 2.75173C39.7972 2.04143 39.2932 1.9564 38.8737 2.56259L37.3626 4.74602C32.2113 1.2881 26.0329 -0.0304576 19.9006 1.03293C19.2829 1.13983 18.6739 1.27066 18.0733 1.42296C18.0687 1.42378 18.065 1.4243 18.0613 1.42512C18.038 1.4308 18.0145 1.43833 17.9919 1.44462C12.7039 2.80259 8.09011 5.88679 4.7979 10.2873C4.77014 10.3202 4.74156 10.3524 4.71535 10.3882C4.60588 10.5356 4.49723 10.6865 4.39085 10.8373C4.21688 11.0846 4.0454 11.338 3.88134 11.5914C3.8608 11.6219 3.84512 11.653 3.82717 11.6838C1.1104 15.8937 -0.200005 20.7608 0.0247244 25.7158C0.0252403 25.7321 0.0243117 25.7485 0.0247244 25.7652C0.0464957 26.2492 0.0848792 26.74 0.136986 27.2231C0.139772 27.2542 0.146685 27.2837 0.151947 27.3149C0.205808 27.8007 0.273392 28.2876 0.358104 28.7744C1.21905 33.7413 3.56209 38.2108 7.07305 41.6886C7.0812 41.6967 7.08966 41.7056 7.09791 41.7141C7.1008 41.7173 7.104 41.7189 7.10679 41.7219C8.05007 42.6523 9.07611 43.5128 10.1809 44.2909C13.072 46.3281 16.2914 47.6748 19.7488 48.2952C20.7978 48.4837 21.7999 47.7854 21.9881 46.7368C22.1762 45.6876 21.4785 44.6847 20.4298 44.4968Z" fill="url(#paint6_linear_34_1121)"/>
<path d="M22.8158 9.08447C21.9529 9.08447 21.2539 9.78404 21.2539 10.6457V26.2L35.4795 33.5538C35.7085 33.6724 35.9536 33.7282 36.1949 33.7282C36.7599 33.7282 37.3056 33.4205 37.5831 32.8837C37.9788 32.1175 37.6794 31.1761 36.9131 30.7804L24.3759 24.2988V10.6457C24.3758 9.78404 23.6776 9.08447 22.8158 9.08447Z" fill="url(#paint7_linear_34_1121)"/>
</g>
<defs>
<linearGradient id="paint0_linear_34_1121" x1="28.6577" y1="44.1617" x2="28.6577" y2="48.3071" gradientUnits="userSpaceOnUse">
<stop stop-color="#28CBFF"/>
<stop offset="1" stop-color="#28C4A9"/>
</linearGradient>
<linearGradient id="paint1_linear_34_1121" x1="44.7191" y1="14.5544" x2="44.7191" y2="19.6784" gradientUnits="userSpaceOnUse">
<stop stop-color="#28CBFF"/>
<stop offset="1" stop-color="#28C4A9"/>
</linearGradient>
<linearGradient id="paint2_linear_34_1121" x1="35.6097" y1="41.1443" x2="35.6097" y2="45.7115" gradientUnits="userSpaceOnUse">
<stop stop-color="#28CBFF"/>
<stop offset="1" stop-color="#28C4A9"/>
</linearGradient>
<linearGradient id="paint3_linear_34_1121" x1="46.0618" y1="21.8907" x2="46.0618" y2="27.0955" gradientUnits="userSpaceOnUse">
<stop stop-color="#28CBFF"/>
<stop offset="1" stop-color="#28C4A9"/>
</linearGradient>
<linearGradient id="paint4_linear_34_1121" x1="41.2244" y1="36.0015" x2="41.2244" y2="40.9134" gradientUnits="userSpaceOnUse">
<stop stop-color="#28CBFF"/>
<stop offset="1" stop-color="#28C4A9"/>
</linearGradient>
<linearGradient id="paint5_linear_34_1121" x1="44.8419" y1="29.3239" x2="44.8419" y2="34.4549" gradientUnits="userSpaceOnUse">
<stop stop-color="#28CBFF"/>
<stop offset="1" stop-color="#28C4A9"/>
</linearGradient>
<linearGradient id="paint6_linear_34_1121" x1="20.9" y1="0.674133" x2="20.9" y2="48.3259" gradientUnits="userSpaceOnUse">
<stop stop-color="#28CBFF"/>
<stop offset="1" stop-color="#28C4A9"/>
</linearGradient>
<linearGradient id="paint7_linear_34_1121" x1="29.5058" y1="9.08447" x2="29.5058" y2="33.7282" gradientUnits="userSpaceOnUse">
<stop stop-color="#28CBFF"/>
<stop offset="1" stop-color="#28C4A9"/>
</linearGradient>
<clipPath id="clip0_34_1121">
<rect width="48" height="48" fill="white" transform="translate(0 0.5)"/>
</clipPath>
</defs>
</svg>
