<svg width="274" height="237" viewBox="0 0 274 237" fill="none" xmlns="http://www.w3.org/2000/svg">
<g clip-path="url(#clip0_41_553)">
<path d="M262.862 0H180.996C174.845 0 169.858 4.99334 169.858 11.1529V173.428C169.858 179.588 174.845 184.581 180.996 184.581H262.862C269.013 184.581 274 179.588 274 173.428V11.1529C274 4.99334 269.013 0 262.862 0Z" fill="#E6E6E6"/>
<path d="M256.981 6.70288H187.122C180.971 6.70288 175.984 11.6962 175.984 17.8558V166.714C175.984 172.874 180.971 177.867 187.122 177.867H256.981C263.132 177.867 268.119 172.874 268.119 166.714V17.8558C268.119 11.6962 263.132 6.70288 256.981 6.70288Z" fill="white"/>
<path d="M256.925 51.6827H230.561V54.0137H256.925V51.6827Z" fill="#B3B3B3"/>
<path d="M252.459 57.2592H230.561V59.5901H252.459V57.2592Z" fill="#B3B3B3"/>
<path d="M256.747 95.7815H183.781V98.1125H256.747V95.7815Z" fill="#CCCCCC"/>
<path d="M259.61 106.934H183.781V109.265H259.61V106.934Z" fill="#CCCCCC"/>
<path d="M252.459 112.511H183.781V114.842H252.459V112.511Z" fill="#CCCCCC"/>
<path d="M259.61 101.358H183.781V103.689H259.61V101.358Z" fill="#CCCCCC"/>
<path d="M256.747 135.943H183.781V138.274H256.747V135.943Z" fill="#CCCCCC"/>
<path d="M259.61 147.096H183.781V149.427H259.61V147.096Z" fill="#CCCCCC"/>
<path d="M252.459 152.673H183.781V155.004H252.459V152.673Z" fill="#CCCCCC"/>
<path d="M237.734 158.249H183.781V160.58H237.734V158.249Z" fill="#CCCCCC"/>
<path d="M242.824 163.826H183.781V166.157H242.824V163.826Z" fill="#CCCCCC"/>
<path d="M259.61 141.52H183.781V143.851H259.61V141.52Z" fill="#CCCCCC"/>
<path d="M218.309 16.7294H189.35C186.274 16.7294 183.781 19.226 183.781 22.3058V60.9731C183.781 64.0529 186.274 66.5496 189.35 66.5496H218.309C221.385 66.5496 223.878 64.0529 223.878 60.9731V22.3058C223.878 19.226 221.385 16.7294 218.309 16.7294Z" fill="#CCE2F8"/>
<path d="M259.609 32.7228H230.561V42.7604H259.609V32.7228Z" fill="#366ED8"/>
<path d="M244.061 79.2974H184.471V83.5689H244.061V79.2974Z" fill="#86A8E8"/>
<path d="M250.532 87.1045H184.471V91.3761H250.532V87.1045Z" fill="#86A8E8"/>
<path d="M244.061 127.255H184.471V131.527H244.061V127.255Z" fill="#86A8E8"/>
<mask id="mask0_41_553" style="mask-type:luminance" maskUnits="userSpaceOnUse" x="183" y="16" width="41" height="51">
<path d="M218.309 16.7294H189.35C186.274 16.7294 183.781 19.226 183.781 22.3058V60.9731C183.781 64.0529 186.274 66.5496 189.35 66.5496H218.309C221.385 66.5496 223.878 64.0529 223.878 60.9731V22.3058C223.878 19.226 221.385 16.7294 218.309 16.7294Z" fill="white"/>
</mask>
<g mask="url(#mask0_41_553)">
<path d="M185.919 62.9917C185.919 56.3 193.983 50.8796 203.93 50.8796C213.876 50.8796 221.94 56.3 221.94 62.9917V69.6835H185.931V62.9917H185.919Z" fill="#8796A6"/>
</g>
<path d="M203.763 55.7648C207.048 55.7648 209.711 54.8759 209.711 53.7795C209.711 52.6831 207.048 51.7943 203.763 51.7943C200.478 51.7943 197.815 52.6831 197.815 53.7795C197.815 54.8759 200.478 55.7648 203.763 55.7648Z" fill="white"/>
<path d="M207.873 53.378C207.873 53.378 206.937 54.6272 204.075 54.6272C201.212 54.6272 200.276 53.378 200.276 53.378V48.9503H207.873V53.378Z" fill="#C1845B"/>
<path d="M196.946 29.2541L196.422 37.8976L201.112 42.0688H207.36L211.103 37.3846L210.479 28.6295L205.377 26.5439L199.552 27.1685L196.946 29.2541Z" fill="#DD9666"/>
<path d="M197.258 33.3139C197.258 33.3139 195.387 30.191 193.716 30.191C192.045 30.191 193.927 33.6261 195.487 35.0872L197.046 36.5482L197.258 33.3139Z" fill="#DD9666"/>
<path d="M210.635 33.1577C210.635 33.1577 212.773 30.2022 214.433 30.3472C216.092 30.4922 213.932 33.76 212.25 35.0761L210.568 36.3921L210.635 33.1577Z" fill="#DD9666"/>
<path d="M196.423 34.3065C196.423 34.3065 194.73 40.4071 195.164 42.0689C195.598 43.7307 195.598 49.4633 203.763 49.7868C211.938 50.099 212.139 44.7791 212.25 42.0689C212.35 39.3588 211.103 33.102 211.103 33.102L210.067 33.1466C210.067 33.1466 211.738 40.2845 203.774 40.2845C195.81 40.2845 197.47 34.2953 197.269 32.7674C197.158 31.8863 196.434 32.1205 196.434 32.1205V34.2953L196.423 34.3065Z" fill="#333333"/>
<path d="M196.423 32.1316C196.423 32.1316 196.634 28.5181 196.011 27.5812C195.387 26.6444 195.598 24.3469 197.681 22.9974C199.764 21.6479 200.076 21.8486 201.112 21.9602C202.148 22.0605 206.625 22.6851 207.672 22.5847C208.708 22.4843 211.214 21.6479 211.838 26.2317C212.462 30.8156 211.214 31.9643 211.114 33.1131L210.078 33.1577C210.078 33.1577 209.354 30.2914 208.207 29.7784C207.06 29.2542 205.912 28.8415 204.464 29.1538C203.005 29.4661 202.281 30.0906 200.199 29.9903C198.116 29.8899 198.015 29.2653 197.704 29.8899C197.392 30.5145 197.291 33.325 197.291 33.325L196.456 32.1428L196.423 32.1316Z" fill="#333333"/>
<path d="M202.983 32.6893L202.771 36.4366C202.771 36.4366 203.295 37.5854 204.754 36.537L204.231 32.5777C204.231 32.5777 203.507 31.6409 202.983 32.6781V32.6893Z" fill="#A6714D"/>
<path d="M128.089 14.4988H11.1382C4.98675 14.4988 0 19.4921 0 25.6517V158.372C0 164.531 4.98675 169.525 11.1382 169.525H128.089C134.241 169.525 139.228 164.531 139.228 158.372V25.6517C139.228 19.4921 134.241 14.4988 128.089 14.4988Z" fill="#E6E6E6"/>
<path d="M123.612 19.4841H15.6158C9.46429 19.4841 4.47754 24.4775 4.47754 30.6371V153.386C4.47754 159.546 9.46429 164.539 15.6158 164.539H123.612C129.763 164.539 134.75 159.546 134.75 153.386V30.6371C134.75 24.4775 129.763 19.4841 123.612 19.4841Z" fill="white"/>
<path d="M60.5138 29.3656H18.9348C15.8591 29.3656 13.3657 31.8623 13.3657 34.9421V76.576C13.3657 79.6558 15.8591 82.1525 18.9348 82.1525H60.5138C63.5895 82.1525 66.0829 79.6558 66.0829 76.576V34.9421C66.0829 31.8623 63.5895 29.3656 60.5138 29.3656Z" fill="#CCE2F8"/>
<path d="M18.0995 82.1636C18.0995 77.0556 27.7563 67.2968 39.6742 67.2968C51.5921 67.2968 61.2489 77.089 61.2489 82.1079L18.0884 82.1636H18.0995Z" fill="#8796A6"/>
<path d="M35.6423 67.4752L33.1362 73.7989L39.7301 69.3378L35.6423 67.4752Z" fill="white"/>
<path d="M44.1853 67.4752L39.73 69.3378L45.856 73.8882L44.1853 67.4752Z" fill="white"/>
<path d="M55.6909 57.9951C55.5016 55.575 52.1601 46.8422 48.8187 41.2657C45.9562 36.4811 40.9217 36.8938 39.5405 37.1057C38.1594 36.8938 33.1249 36.4811 30.2624 41.2657C26.9209 46.8422 23.5795 55.575 23.3901 57.9951C23.2008 60.4042 23.5795 66.3152 39.5405 62.869C55.5016 66.3152 55.8803 60.4042 55.6909 57.9951Z" fill="#333333"/>
<path d="M37.3128 60.4153L35.6421 67.4751L39.7298 69.3377L44.1851 67.4751L42.1357 60.0361L37.3128 60.4153Z" fill="#C1845B"/>
<path d="M32.3009 48.8833C32.3009 48.8833 30.0732 61.3411 39.5407 61.5195C49.0082 61.7091 47.3375 49.4409 47.3375 49.4409L45.8561 44.9797L41.5901 40.5186L37.6918 40.8866L32.312 48.8833H32.3009Z" fill="#DD9666"/>
<path d="M32.3008 48.8832C32.3008 48.8832 38.4268 50.1881 39.7299 43.4964C39.7299 43.4964 40.2869 49.4409 47.1591 48.5152L47.9054 46.095L44.1964 40.7081L41.0443 38.8456L35.2858 39.2136L31.9443 47.5783L32.3119 48.8832H32.3008Z" fill="#333333"/>
<path d="M39.1729 50.5562L38.5269 55.1066C38.5269 55.1066 39.7298 56.0323 40.7545 55.1066L40.1085 50.3666C40.1085 50.3666 39.4625 49.8089 39.184 50.5562H39.1729Z" fill="#A6714D"/>
<path d="M122.899 45.7271H75.3721V55.7647H122.899V45.7271Z" fill="#366ED8"/>
<path d="M113.298 64.687H75.3721V67.018H113.298V64.687Z" fill="#B3B3B3"/>
<path d="M99.6422 75.84H75.3721V78.1709H99.6422V75.84Z" fill="#B3B3B3"/>
<path d="M122.899 70.2634H75.3721V72.5944H122.899V70.2634Z" fill="#B3B3B3"/>
<path d="M72.9551 100.566H13.3657V104.838H72.9551V100.566Z" fill="#86A8E8"/>
<path d="M122.119 112.589H12.6641V114.92H122.119V112.589Z" fill="#CCCCCC"/>
<path d="M115.102 123.742H12.6641V126.073H115.102V123.742Z" fill="#CCCCCC"/>
<path d="M126.407 118.165H12.6641V120.496H126.407V118.165Z" fill="#CCCCCC"/>
<path d="M96.2229 144.944H12.6641V147.275H96.2229V144.944Z" fill="#CCCCCC"/>
<path d="M88.2145 150.52H12.6641V152.851H88.2145V150.52Z" fill="#CCCCCC"/>
<path d="M72.9551 132.91H13.3657V137.181H72.9551V132.91Z" fill="#86A8E8"/>
<path d="M190.463 152.795H62.3741C56.2226 152.795 51.2358 157.789 51.2358 163.948V225.847C51.2358 232.007 56.2226 237 62.3741 237H190.463C196.615 237 201.602 232.007 201.602 225.847V163.948C201.602 157.789 196.615 152.795 190.463 152.795Z" fill="#E6E6E6"/>
<path d="M186.12 157.011H66.8516C60.7001 157.011 55.7134 162.004 55.7134 168.164V221.955C55.7134 228.114 60.7001 233.108 66.8516 233.108H186.12C192.271 233.108 197.258 228.114 197.258 221.955V168.164C197.258 162.004 192.271 157.011 186.12 157.011Z" fill="white"/>
<path d="M162.996 170.027H115.47V180.064H162.996V170.027Z" fill="#366ED8"/>
<path d="M153.395 188.987H115.47V191.318H153.395V188.987Z" fill="#B3B3B3"/>
<path d="M170.57 194.563H115.47V196.894H170.57V194.563Z" fill="#B3B3B3"/>
<path d="M185.384 220.17H65.2588V222.501H185.384V220.17Z" fill="#CCCCCC"/>
<path d="M190.096 225.747H65.2588V228.078H190.096V225.747Z" fill="#CCCCCC"/>
<path d="M125.539 211.482H65.9492V215.754H125.539V211.482Z" fill="#86A8E8"/>
<path d="M99.8766 166.179H70.9173C67.8415 166.179 65.3481 168.676 65.3481 171.755V200.753C65.3481 203.833 67.8415 206.329 70.9173 206.329H99.8766C102.952 206.329 105.446 203.833 105.446 200.753V171.755C105.446 168.676 102.952 166.179 99.8766 166.179Z" fill="#CCE2F8"/>
<path d="M86.0652 196.916C86.0652 196.916 96.7245 197.686 96.7245 196.916V187.648C96.7245 185.351 96.0339 176.15 92.5476 172.804C89.0614 169.458 85.9872 171.9 85.9872 171.9C85.9872 171.9 82.9131 169.458 79.4268 172.804C75.9406 176.15 75.25 185.351 75.25 187.648V196.916C75.25 197.686 85.9093 196.916 85.9093 196.916H86.0541H86.0652Z" fill="#333333"/>
<mask id="mask1_41_553" style="mask-type:luminance" maskUnits="userSpaceOnUse" x="65" y="166" width="41" height="41">
<path d="M99.8766 166.179H70.9173C67.8415 166.179 65.3481 168.676 65.3481 171.755V200.753C65.3481 203.833 67.8415 206.329 70.9173 206.329H99.8766C102.952 206.329 105.446 203.833 105.446 200.753V171.755C105.446 168.676 102.952 166.179 99.8766 166.179Z" fill="white"/>
</mask>
<g mask="url(#mask1_41_553)">
<path d="M85.9205 217.114C94.9632 217.114 102.294 211.612 102.294 204.824C102.294 198.036 94.9632 192.533 85.9205 192.533C76.8779 192.533 69.5474 198.036 69.5474 204.824C69.5474 211.612 76.8779 217.114 85.9205 217.114Z" fill="#8796A6"/>
</g>
<path d="M90.7768 194.373C90.7768 195.121 88.5715 199.638 85.9651 199.638C83.3588 199.638 81.3428 195.132 81.3428 194.373C81.3428 193.615 83.459 193.013 86.0654 193.013C88.6717 193.013 90.788 193.615 90.788 194.373H90.7768Z" fill="white"/>
<path d="M89.4956 194.061C89.4956 194.061 88.2927 195.176 85.9091 195.176C83.5255 195.176 82.4229 194.061 82.4229 194.061V189.968H89.4956V194.061Z" fill="#C1845B"/>
<path d="M79.1149 179.284C79.1149 179.284 77.3662 190.782 85.9649 190.994C94.5636 191.206 92.6924 179.005 92.6924 178.659L89.5069 175.938L82.4341 175.313L79.1149 179.284Z" fill="#DD9666"/>
<path d="M78.5247 178.447C78.5247 178.447 77.9678 180.332 81.0976 180.053C84.2275 179.774 85.3858 178.447 85.3858 178.447C85.3858 178.447 83.4589 181.235 84.8512 181.369C86.2435 181.503 91.3225 179.272 91.8126 178.447C91.8126 178.447 88.4711 182.696 93.4833 179.35V176.696L89.7966 173.908H82.4231L78.5136 178.436L78.5247 178.447Z" fill="#333333"/>
<path d="M85.553 183.154L85.23 186.254C85.23 186.254 85.8537 186.879 86.7559 186.254L86.4775 183.154C86.4775 183.154 85.9428 182.629 85.553 183.154Z" fill="#A6714D"/>
</g>
<defs>
<clipPath id="clip0_41_553">
<rect width="274" height="237" fill="white"/>
</clipPath>
</defs>
</svg>
