<svg width="480" height="384" viewBox="0 0 480 384" fill="none" xmlns="http://www.w3.org/2000/svg">
<g clip-path="url(#clip0_49_1231)">
<path d="M234.332 334.042C352.077 334.042 447.528 315.326 447.528 292.239C447.528 269.152 352.077 250.437 234.332 250.437C116.587 250.437 21.136 269.152 21.136 292.239C21.136 315.326 116.587 334.042 234.332 334.042Z" fill="#C7C7C7"/>
<path d="M414.636 224.944C396.185 239.587 370.598 216.949 376.715 198.423C379.879 188.851 387.383 181.235 388.88 171.104C390.437 160.653 395.376 156.231 403.459 149.913C406.623 147.438 407.89 142.876 409.367 139.163C412.151 132.146 416.303 126.247 422.999 122.484C431.242 117.842 447.468 124.101 449.484 134.492C451.938 147.108 435.573 153.077 430.214 161.172C425.613 168.129 429.954 177.282 423.218 184.818C413.099 196.137 429.146 214.144 414.636 224.934V224.944Z" fill="#88C8FC"/>
<path d="M395.306 246.314C394.927 246.314 394.598 246.025 394.558 245.636C391.285 209.632 402.252 173.14 424.645 145.521C424.905 145.202 425.374 145.152 425.703 145.411C426.022 145.671 426.072 146.14 425.813 146.459C403.669 173.779 392.821 209.882 396.055 245.496C396.095 245.905 395.785 246.274 395.376 246.304C395.356 246.304 395.326 246.304 395.306 246.304V246.314Z" fill="#29275F"/>
<path d="M405.754 201.268C400.775 208.315 396.853 216.21 388.41 217.757C375.657 220.103 360.389 232.27 361.167 248.161C360.948 280.521 410.285 279.862 414.097 255.827C415.893 244.468 418.777 239.517 430.383 237.85C437.339 236.852 439.434 231.003 441.39 224.994C443.206 222.239 445.801 220.113 448.914 218.975C453.335 217.368 458.315 218.067 463.045 217.917C467.216 217.797 471.378 216.929 474.481 214.184C477.425 211.559 479.351 207.836 479.87 203.683C480.369 199.541 479.331 195.209 476.926 191.526C474.651 188.062 471.198 185.238 467.476 183.77C463.255 182.093 458.934 182.123 455.022 183.74C450.491 185.607 446.968 188.991 443.456 192.294C443.436 192.324 443.406 192.344 443.386 192.364C438.865 196.626 432.419 198.154 426.022 196.557C418.398 194.65 411.133 193.672 405.764 201.268H405.754Z" fill="#508DD2"/>
<path d="M360.569 277.506C360.439 277.506 360.309 277.477 360.189 277.397C359.83 277.187 359.72 276.728 359.93 276.369C380.896 241.054 413.818 214.743 452.617 202.266C453.006 202.136 453.435 202.356 453.555 202.745C453.685 203.134 453.465 203.564 453.076 203.683C414.626 216.04 382.004 242.122 361.217 277.117C361.078 277.357 360.828 277.487 360.569 277.487V277.506Z" fill="#29275F"/>
<path d="M62.2504 238.329C80.7019 252.972 106.289 230.334 100.171 211.808C97.0079 202.236 89.5036 194.62 88.0067 184.489C86.4499 174.038 81.5102 169.617 73.4271 163.298C70.2637 160.823 68.9963 156.261 67.5194 152.548C64.7352 145.531 60.5838 139.632 53.8878 135.869C45.6449 131.228 29.4188 137.486 27.403 147.877C24.9481 160.493 41.314 166.462 46.6728 174.557C51.2732 181.514 46.9323 190.668 53.6682 198.204C63.7872 209.523 47.7406 227.529 62.2504 238.319V238.329Z" fill="#508DD2"/>
<path d="M81.5802 259.7C81.5802 259.7 81.5303 259.7 81.5103 259.7C81.1012 259.66 80.7918 259.3 80.8318 258.891C84.065 223.277 73.2176 187.174 51.0737 159.855C50.8143 159.535 50.8642 159.066 51.1835 158.807C51.5029 158.547 51.9719 158.597 52.2313 158.916C74.6247 186.535 85.5918 223.028 82.3187 259.031C82.2787 259.42 81.9594 259.71 81.5702 259.71L81.5802 259.7Z" fill="#29275F"/>
<path d="M74.2353 210.361C79.215 217.408 83.1368 225.303 91.5792 226.85C104.333 229.196 119.601 241.364 118.822 257.254C119.042 289.614 69.7048 288.955 65.8927 264.92C64.0964 253.561 61.2125 248.61 49.6066 246.943C42.6511 245.945 40.5555 240.096 38.5996 234.087C36.7834 231.332 34.1888 229.206 31.0752 228.068C26.6545 226.461 21.6748 227.16 16.9447 227.01C12.7734 226.89 8.61204 226.022 5.50851 223.277C2.56464 220.652 0.638656 216.929 0.119737 212.776C-0.379224 208.634 0.648635 204.302 3.0636 200.619C5.33886 197.155 8.79167 194.331 12.5139 192.863C16.7351 191.187 21.0561 191.216 24.968 192.833C29.4985 194.7 33.0212 198.084 36.5339 201.388C36.5538 201.418 36.5838 201.438 36.6037 201.457C41.1243 205.72 47.5709 207.247 53.9676 205.65C61.5917 203.743 68.8565 202.765 74.2353 210.361Z" fill="#88C8FC"/>
<path d="M119.431 286.6C119.172 286.6 118.922 286.47 118.782 286.23C98.0058 251.235 65.3837 225.154 26.9239 212.796C26.5347 212.667 26.3151 212.247 26.4449 211.858C26.5746 211.469 26.9937 211.249 27.3829 211.379C66.1821 223.856 99.1035 250.167 120.07 285.482C120.279 285.841 120.16 286.3 119.81 286.51C119.691 286.58 119.561 286.62 119.431 286.62V286.6Z" fill="#29275F"/>
<path d="M426.741 319.169H50.3451C46.1439 319.169 42.741 315.766 42.741 311.563V308.359H434.345V311.563C434.345 315.766 430.942 319.169 426.741 319.169Z" fill="#29275F"/>
<path d="M393.49 248.73H83.5958L42.741 308.369H434.345L393.49 248.73Z" fill="white"/>
<path d="M388.151 52.1243H88.9346C86.0706 52.1243 83.7554 54.44 83.7554 57.3047V248.73H393.33V57.3047C393.33 54.44 391.015 52.1243 388.151 52.1243Z" fill="#29275F"/>
<path d="M383.86 68.4141H93.2256V233.478H383.86V68.4141Z" fill="#67A4E9"/>
<path d="M426.741 319.918H50.345C45.7346 319.918 41.9924 316.175 41.9924 311.563V308.359C41.9924 307.95 42.3317 307.611 42.7409 307.611H434.345C434.754 307.611 435.093 307.95 435.093 308.359V311.563C435.093 316.175 431.351 319.918 426.741 319.918ZM43.4893 309.108V311.563C43.4893 315.346 46.5629 318.421 50.345 318.421H426.741C430.523 318.421 433.597 315.346 433.597 311.563V309.108H43.4893Z" fill="#29275F"/>
<path d="M434.345 309.118H42.741C42.4616 309.118 42.2121 308.968 42.0824 308.719C41.9526 308.469 41.9726 308.18 42.1223 307.95L82.9772 248.311C83.1169 248.111 83.3464 247.981 83.5959 247.981H393.49C393.74 247.981 393.969 248.101 394.109 248.311L434.964 307.95C435.124 308.18 435.134 308.479 435.004 308.719C434.874 308.968 434.625 309.118 434.345 309.118ZM44.168 307.621H432.928L393.101 249.478H83.995L44.168 307.621Z" fill="#29275F"/>
<path d="M393.331 249.478H83.7555C83.3464 249.478 83.0071 249.139 83.0071 248.73V57.3047C83.0071 54.0407 85.6616 51.3757 88.9347 51.3757H388.151C391.425 51.3757 394.079 54.0307 394.079 57.3047V248.73C394.079 249.139 393.74 249.478 393.331 249.478ZM84.494 247.981H392.582V57.3047C392.582 54.8592 390.596 52.8729 388.151 52.8729H88.9347C86.4898 52.8729 84.504 54.8592 84.504 57.3047V247.981H84.494Z" fill="#29275F"/>
<path d="M383.86 234.227H93.2257C92.8166 234.227 92.4773 233.887 92.4773 233.478V68.4141C92.4773 68.0048 92.8166 67.6655 93.2257 67.6655H383.86C384.269 67.6655 384.609 68.0048 384.609 68.4141V233.478C384.609 233.887 384.269 234.227 383.86 234.227ZM93.9742 232.729H383.112V69.1627H93.9742V232.729Z" fill="#29275F"/>
<path d="M318.157 240.315H158.919V247.552H318.157V240.315Z" fill="white"/>
<path d="M225.041 60.0895C225.041 62.7845 222.856 64.9705 220.161 64.9705C217.467 64.9705 215.281 62.7845 215.281 60.0895C215.281 57.3945 217.467 55.2086 220.161 55.2086C222.856 55.2086 225.041 57.3945 225.041 60.0895Z" fill="#67A4E9"/>
<path d="M294.696 304.287H182.39C182.111 304.287 181.861 304.137 181.731 303.888C181.602 303.638 181.622 303.349 181.771 303.119L193.487 286.021C193.627 285.821 193.856 285.691 194.106 285.691H282.98C283.23 285.691 283.459 285.811 283.599 286.021L295.315 303.119C295.474 303.349 295.484 303.648 295.355 303.888C295.225 304.137 294.975 304.287 294.696 304.287ZM183.807 302.79H293.269L282.581 287.189H194.495L183.807 302.79Z" fill="#29275F"/>
<path d="M124.211 264.72H103.504C103.235 264.72 102.995 264.58 102.856 264.351C102.726 264.121 102.716 263.842 102.856 263.602L108.175 254.14C108.304 253.9 108.554 253.76 108.823 253.76H128.722C128.981 253.76 129.221 253.89 129.351 254.11C129.49 254.329 129.5 254.599 129.39 254.829L124.89 264.291C124.77 264.55 124.501 264.72 124.211 264.72ZM104.782 263.223H123.742L127.534 255.258H109.262L104.792 263.223H104.782Z" fill="#29275F"/>
<path d="M159.977 264.72H139.27C139.02 264.72 138.791 264.6 138.651 264.391C138.511 264.181 138.481 263.922 138.581 263.692L142.493 254.23C142.613 253.95 142.882 253.77 143.182 253.77H163.08C163.32 253.77 163.549 253.89 163.689 254.08C163.829 254.28 163.869 254.529 163.799 254.749L160.695 264.211C160.595 264.521 160.306 264.73 159.987 264.73L159.977 264.72ZM140.387 263.223H159.438L162.042 255.258H143.681L140.387 263.223Z" fill="#29275F"/>
<path d="M195.732 264.72H175.025C174.796 264.72 174.576 264.61 174.437 264.431C174.297 264.251 174.247 264.011 174.307 263.782L176.812 254.319C176.901 253.99 177.191 253.76 177.54 253.76H197.439C197.658 253.76 197.868 253.86 198.017 254.03C198.157 254.2 198.217 254.429 198.177 254.639L196.481 264.101C196.421 264.461 196.111 264.72 195.742 264.72H195.732ZM175.993 263.223H195.104L196.531 255.258H178.099L175.983 263.223H175.993Z" fill="#29275F"/>
<path d="M231.488 264.72H210.781C210.571 264.72 210.362 264.63 210.222 264.471C210.082 264.311 210.013 264.101 210.042 263.882L211.15 254.419C211.19 254.04 211.509 253.76 211.899 253.76H231.797C231.997 253.76 232.196 253.84 232.336 253.99C232.476 254.14 232.556 254.329 232.546 254.539L232.246 264.001C232.236 264.411 231.907 264.73 231.498 264.73L231.488 264.72ZM211.619 263.223H230.759L231.009 255.258H212.547L211.619 263.223Z" fill="#29275F"/>
<path d="M267.243 264.72H246.536C246.127 264.72 245.798 264.401 245.788 263.992L245.489 254.529C245.489 254.329 245.558 254.13 245.698 253.98C245.838 253.83 246.027 253.75 246.237 253.75H266.136C266.515 253.75 266.834 254.04 266.884 254.409L267.992 263.872C268.012 264.081 267.952 264.301 267.812 264.461C267.672 264.62 267.463 264.71 267.253 264.71L267.243 264.72ZM247.255 263.223H266.395L265.467 255.258H247.005L247.255 263.223Z" fill="#29275F"/>
<path d="M303.009 264.72H282.302C281.943 264.72 281.633 264.461 281.564 264.101L279.867 254.639C279.827 254.419 279.887 254.2 280.027 254.03C280.166 253.86 280.376 253.76 280.606 253.76H300.504C300.843 253.76 301.143 253.99 301.223 254.319L303.727 263.782C303.787 264.011 303.737 264.251 303.598 264.431C303.458 264.61 303.238 264.72 303.009 264.72ZM282.921 263.223H302.031L299.915 255.258H281.484L282.911 263.223H282.921Z" fill="#29275F"/>
<path d="M338.764 264.72H318.057C317.738 264.72 317.449 264.511 317.349 264.201L314.245 254.739C314.175 254.509 314.205 254.26 314.355 254.07C314.495 253.88 314.724 253.76 314.964 253.76H334.862C335.162 253.76 335.441 253.94 335.551 254.22L339.463 263.682C339.563 263.912 339.533 264.181 339.393 264.381C339.253 264.59 339.024 264.71 338.774 264.71L338.764 264.72ZM318.596 263.223H337.647L334.353 255.258H315.992L318.596 263.223Z" fill="#29275F"/>
<path d="M374.52 264.72H353.813C353.524 264.72 353.264 264.55 353.134 264.291L348.634 254.828C348.524 254.599 348.544 254.319 348.674 254.11C348.813 253.89 349.053 253.76 349.302 253.76H369.201C369.47 253.76 369.72 253.91 369.85 254.14L375.168 263.602C375.298 263.832 375.298 264.121 375.168 264.351C375.039 264.58 374.789 264.72 374.52 264.72ZM354.282 263.223H373.242L368.772 255.258H350.5L354.292 263.223H354.282Z" fill="#29275F"/>
<path d="M101.798 277.986H81.091C80.8216 277.986 80.5821 277.846 80.4424 277.616C80.3127 277.387 80.3027 277.107 80.4424 276.868L85.7613 267.405C85.891 267.166 86.1405 267.026 86.4099 267.026H106.308C106.568 267.026 106.807 267.156 106.937 267.375C107.077 267.595 107.087 267.864 106.977 268.094L102.476 277.556C102.357 277.816 102.087 277.986 101.798 277.986ZM82.3684 276.488H101.329L105.121 268.523H86.849L82.3784 276.488H82.3684Z" fill="#29275F"/>
<path d="M137.563 277.986H116.857C116.607 277.986 116.378 277.866 116.238 277.656C116.098 277.447 116.078 277.187 116.168 276.957L120.08 267.495C120.2 267.216 120.469 267.036 120.768 267.036H140.667C140.906 267.036 141.136 267.156 141.276 267.345C141.415 267.545 141.455 267.794 141.385 268.014L138.282 277.477C138.182 277.786 137.893 277.996 137.573 277.996L137.563 277.986ZM117.974 276.488H137.025L139.629 268.523H121.267L117.974 276.488Z" fill="#29275F"/>
<path d="M173.319 277.986H152.612C152.383 277.986 152.163 277.876 152.023 277.696C151.884 277.516 151.834 277.277 151.894 277.047L154.398 267.585C154.488 267.255 154.778 267.026 155.127 267.026H175.025C175.245 267.026 175.454 267.126 175.604 267.295C175.744 267.465 175.804 267.695 175.764 267.904L174.067 277.367C174.007 277.726 173.698 277.986 173.329 277.986H173.319ZM153.58 276.488H172.69L174.117 268.523H155.686L153.57 276.488H153.58Z" fill="#29275F"/>
<path d="M209.074 277.986H188.368C188.158 277.986 187.948 277.896 187.809 277.736C187.669 277.576 187.599 277.367 187.629 277.157L188.737 267.695C188.777 267.315 189.096 267.036 189.485 267.036H209.384C209.583 267.036 209.783 267.116 209.923 267.265C210.062 267.415 210.142 267.605 210.132 267.814L209.833 277.277C209.823 277.686 209.494 278.006 209.084 278.006L209.074 277.986ZM189.206 276.488H208.346L208.595 268.523H190.134L189.206 276.488Z" fill="#29275F"/>
<path d="M244.83 277.986H224.123C223.714 277.986 223.385 277.666 223.375 277.257L223.075 267.794C223.075 267.595 223.145 267.395 223.285 267.245C223.424 267.096 223.624 267.016 223.824 267.016H243.722C244.101 267.016 244.421 267.305 244.471 267.675L245.578 277.137C245.598 277.347 245.538 277.566 245.399 277.726C245.259 277.886 245.049 277.976 244.84 277.976L244.83 277.986ZM224.842 276.488H243.982L243.054 268.523H224.592L224.842 276.488Z" fill="#29275F"/>
<path d="M280.595 277.986H259.888C259.529 277.986 259.22 277.726 259.15 277.367L257.454 267.904C257.414 267.685 257.474 267.465 257.613 267.295C257.753 267.126 257.963 267.026 258.192 267.026H278.091C278.43 267.026 278.729 267.255 278.809 267.585L281.314 277.047C281.374 277.267 281.324 277.506 281.184 277.696C281.044 277.876 280.825 277.986 280.595 277.986ZM260.507 276.488H279.617L277.502 268.523H259.07L260.497 276.488H260.507Z" fill="#29275F"/>
<path d="M316.351 277.986H295.644C295.324 277.986 295.035 277.776 294.935 277.467L291.832 268.004C291.762 267.775 291.792 267.525 291.942 267.335C292.081 267.146 292.311 267.026 292.55 267.026H312.449C312.748 267.026 313.028 267.206 313.137 267.485L317.049 276.947C317.149 277.177 317.119 277.447 316.979 277.646C316.84 277.856 316.61 277.976 316.361 277.976L316.351 277.986ZM296.183 276.488H315.233L311.94 268.523H293.578L296.193 276.488H296.183Z" fill="#29275F"/>
<path d="M352.106 277.986H331.399C331.11 277.986 330.851 277.816 330.721 277.556L326.22 268.094C326.11 267.864 326.13 267.595 326.26 267.375C326.4 267.156 326.639 267.026 326.889 267.026H346.787C347.057 267.026 347.306 267.176 347.436 267.405L352.745 276.868C352.875 277.097 352.875 277.387 352.745 277.616C352.615 277.846 352.366 277.986 352.096 277.986H352.106ZM331.868 276.488H350.829L346.358 268.523H328.086L331.878 276.488H331.868Z" fill="#29275F"/>
<path d="M387.134 277.986H366.427C366.137 277.986 365.878 277.816 365.748 277.556L361.248 268.094C361.138 267.864 361.158 267.595 361.287 267.375C361.427 267.156 361.667 267.026 361.916 267.026H381.815C382.084 267.026 382.334 267.176 382.463 267.405L387.782 276.868C387.912 277.097 387.912 277.387 387.782 277.616C387.653 277.846 387.403 277.986 387.134 277.986ZM366.896 276.488H385.856L381.386 268.523H363.114L366.906 276.488H366.896Z" fill="#29275F"/>
<path d="M306.502 22.0201H170.585C161.022 22.0201 153.271 29.7736 153.271 39.338V200.1C153.271 209.664 161.022 217.418 170.585 217.418H306.502C316.064 217.418 323.815 209.664 323.815 200.1V39.338C323.815 29.7736 316.064 22.0201 306.502 22.0201Z" fill="white"/>
<path d="M270.975 31.762C270.975 34.1277 269.059 36.0441 266.694 36.0441C264.329 36.0441 262.413 34.1277 262.413 31.762C262.413 29.3964 264.329 27.48 266.694 27.48C269.059 27.48 270.975 29.3964 270.975 31.762Z" fill="#88C8FC"/>
<path d="M289.796 31.762C289.796 34.1277 287.88 36.0441 285.515 36.0441C283.15 36.0441 281.234 34.1277 281.234 31.762C281.234 29.3964 283.15 27.48 285.515 27.48C287.88 27.48 289.796 29.3964 289.796 31.762Z" fill="#508DD2"/>
<path d="M308.617 31.762C308.617 34.1277 306.701 36.0441 304.336 36.0441C301.971 36.0441 300.055 34.1277 300.055 31.762C300.055 29.3964 301.971 27.48 304.336 27.48C306.701 27.48 308.617 29.3964 308.617 31.762Z" fill="#29275F"/>
<path d="M306.501 218.167H170.585C160.625 218.167 152.522 210.062 152.522 200.1V39.338C152.522 29.3765 160.625 21.2715 170.585 21.2715H306.491C316.451 21.2715 324.554 29.3765 324.554 39.338V200.1C324.554 210.062 316.451 218.167 306.491 218.167H306.501ZM170.585 22.7687C161.444 22.7687 154.019 30.2049 154.019 39.338V200.1C154.019 209.243 161.454 216.669 170.585 216.669H306.491C315.632 216.669 323.057 209.233 323.057 200.1V39.338C323.057 30.1949 315.622 22.7687 306.491 22.7687H170.585Z" fill="#29275F"/>
<path d="M323.815 40.0866H153.271C152.862 40.0866 152.522 39.7472 152.522 39.338C152.522 38.9287 152.862 38.5894 153.271 38.5894H323.815C324.225 38.5894 324.564 38.9287 324.564 39.338C324.564 39.7472 324.225 40.0866 323.815 40.0866Z" fill="#29275F"/>
<path d="M212.058 61.1875L193.537 53.342L175.015 61.1875V17.4985H212.058V61.1875Z" fill="#508DD2"/>
<path d="M208.935 71.4584H165.974V117.872H208.935V71.4584Z" fill="#88C8FC"/>
<path d="M311.112 71.4584H214.862V75.4011H311.112V71.4584Z" fill="#C7C7C7"/>
<path d="M311.112 82.0189H214.862V85.9616H311.112V82.0189Z" fill="#C7C7C7"/>
<path d="M311.112 92.5693H214.862V96.512H311.112V92.5693Z" fill="#C7C7C7"/>
<path d="M311.112 103.13H214.862V107.072H311.112V103.13Z" fill="#C7C7C7"/>
<path d="M270.486 113.69H214.862V117.633H270.486V113.69Z" fill="#C7C7C7"/>
<path d="M311.122 134.192H165.974V138.135H311.122V134.192Z" fill="#C7C7C7"/>
<path d="M311.122 144.753H165.974V148.695H311.122V144.753Z" fill="#C7C7C7"/>
<path d="M311.122 155.313H165.974V159.256H311.122V155.313Z" fill="#C7C7C7"/>
<path d="M311.122 165.873H165.974V169.816H311.122V165.873Z" fill="#C7C7C7"/>
<path d="M270.496 176.434H165.974V180.377H270.496V176.434Z" fill="#C7C7C7"/>
<path d="M310.523 52.1243H243.692V63.1438H310.523V52.1243Z" fill="#88C8FC"/>
<path d="M242.684 207.386C242.574 207.386 242.465 207.366 242.365 207.317L227.077 200.02C226.708 199.84 226.548 199.391 226.727 199.022C226.907 198.653 227.356 198.493 227.725 198.673L242.694 205.809L257.663 198.673C258.042 198.493 258.481 198.653 258.661 199.022C258.841 199.391 258.681 199.84 258.312 200.02L243.024 207.317C242.924 207.366 242.814 207.386 242.704 207.386H242.684Z" fill="#29275F"/>
<path d="M452.996 382.751H364.281L340.271 292.239C340.271 292.239 315.862 266.447 304.256 248.001C292.63 229.535 288.14 223.407 287.142 217.378C286.264 211.988 279.927 172.86 278.58 164.536C278.42 163.638 278.709 162.719 279.328 162.07C279.428 161.941 279.548 161.841 279.687 161.731C282.482 159.615 289.297 156.81 297.051 170.175C305.973 185.587 307.27 205.031 307.469 209.552L310.633 214.893L319.275 229.476L330.082 247.692C330.082 247.692 341.578 245.566 349.442 236.213L338.654 217.997L330.013 203.414L326.62 197.674L326.58 197.625L303.368 164.955C303.368 164.955 291.942 160.004 280.685 154.694C269.429 149.384 265.826 130.918 274.029 132.176C277.143 132.655 284.008 135.17 291.323 138.115C303.238 142.886 316.341 148.755 316.341 148.755C321.47 144.074 330.202 146.769 330.202 146.769C330.202 146.769 336.329 143.525 342.457 144.423C348.574 145.331 376.585 171.713 380.986 180.446C385.407 189.18 395.756 271.348 395.756 271.348L453.016 382.751H452.996Z" fill="white"/>
<path d="M285.745 138.903C285.555 140.321 285.156 141.978 284.278 143.345C283.32 144.832 281.414 145.391 279.787 144.713L271.854 141.449C270.317 140.81 269.389 139.233 269.579 137.596C269.728 136.278 270.098 134.761 270.926 133.503C271.844 132.096 273.62 131.537 275.207 132.096L283.3 134.921C284.957 135.5 285.974 137.167 285.745 138.903Z" fill="#AFD4EF"/>
<path d="M289.058 176.264C286.942 177.991 283.659 178.091 281.913 178.011C281.224 177.981 280.665 177.472 280.546 176.793L278.69 165.334C278.61 164.805 278.819 164.266 279.238 163.937C281.454 162.22 284.138 162.22 285.455 162.36C285.964 162.41 286.423 162.709 286.643 163.178C288.07 166.243 289.218 172.711 289.577 174.907C289.657 175.426 289.457 175.945 289.058 176.274V176.264Z" fill="#AFD4EF"/>
<path d="M329.993 203.424C322.119 212.776 310.623 214.903 310.623 214.903L307.46 209.562C307.27 205.041 305.973 185.587 297.041 170.185C289.297 156.81 282.482 159.625 279.678 161.741C279.538 161.841 279.418 161.951 279.318 162.08L256.077 122.833C256.466 123.402 257.484 124.859 258.821 126.147L259.04 126.367C259.42 126.716 259.809 127.055 260.218 127.335C260.338 127.435 260.468 127.515 260.597 127.604C260.827 127.764 261.066 127.904 261.306 128.024C261.475 128.113 261.645 128.193 261.815 128.253C261.984 128.313 262.154 128.383 262.334 128.433C262.493 128.473 262.653 128.513 262.823 128.533H262.853C263.022 128.563 263.192 128.573 263.362 128.573C263.91 128.573 264.459 128.433 264.998 128.123C267.084 126.896 267.513 124.49 267.433 122.464C267.433 122.404 267.433 122.334 267.423 122.274C267.413 121.895 267.383 121.546 267.333 121.226C267.333 121.166 267.323 121.106 267.323 121.057C267.293 120.897 267.273 120.757 267.263 120.627C267.253 120.617 267.253 120.597 267.253 120.597C267.114 119.729 266.914 119.12 266.894 119C266.924 119.03 266.974 119.08 267.034 119.16C267.074 119.2 267.114 119.24 267.154 119.29C267.203 119.34 267.253 119.41 267.313 119.459C267.503 119.649 267.752 119.889 268.042 120.148C268.162 120.278 268.291 120.378 268.421 120.488C268.581 120.617 268.73 120.757 268.9 120.877C268.94 120.917 268.99 120.957 269.03 120.977C269.219 121.136 269.419 121.276 269.628 121.406C269.678 121.446 269.728 121.486 269.788 121.526C270.127 121.735 270.487 121.945 270.846 122.105C271.036 122.194 271.225 122.284 271.415 122.354C271.604 122.434 271.804 122.484 271.994 122.534C272.173 122.594 272.373 122.634 272.562 122.654C273.091 122.733 273.61 122.713 274.129 122.574C274.289 122.534 274.438 122.484 274.598 122.414C274.758 122.354 274.917 122.254 275.077 122.164C275.506 121.905 275.826 121.566 276.075 121.156C276.135 121.067 276.195 120.977 276.245 120.867C276.334 120.657 276.414 120.468 276.474 120.258C276.504 120.208 276.514 120.168 276.514 120.118C276.574 119.949 276.614 119.769 276.644 119.589C276.684 119.38 276.704 119.17 276.724 118.97C276.734 118.94 276.734 118.911 276.734 118.871C276.774 118.431 276.774 117.972 276.744 117.493C276.734 117.313 276.714 117.134 276.704 116.964C276.654 116.385 276.574 115.796 276.454 115.237C276.424 115.048 276.394 114.858 276.334 114.678C276.285 114.419 276.235 114.159 276.165 113.91C276.105 113.65 276.035 113.401 275.975 113.171C275.676 112.093 275.396 111.315 275.317 111.125L291.313 138.115C283.989 135.17 277.123 132.655 274.019 132.176C265.816 130.918 269.419 149.384 280.675 154.694C291.932 160.004 303.358 164.955 303.358 164.955L326.57 197.625L326.61 197.674L330.003 203.414L329.993 203.424Z" fill="#E6AC4B"/>
<path d="M338.635 217.997C330.761 227.369 319.265 229.476 319.265 229.476L310.623 214.893C310.623 214.893 322.119 212.766 329.993 203.414L338.635 217.997Z" fill="#C7C7C7"/>
<path d="M349.422 236.213C341.558 245.566 330.062 247.692 330.062 247.692L319.255 229.476C319.255 229.476 330.751 227.359 338.625 217.997L349.412 236.213H349.422Z" fill="white"/>
<path d="M276.724 117.473C276.753 117.952 276.753 118.401 276.714 118.851C276.714 118.891 276.714 118.93 276.704 118.95C276.694 119.16 276.664 119.37 276.624 119.569C276.614 119.619 276.594 119.689 276.584 119.739C276.574 119.799 276.574 119.859 276.544 119.909C276.534 119.969 276.514 120.038 276.494 120.098C276.484 120.148 276.464 120.188 276.454 120.238C276.394 120.448 276.314 120.637 276.225 120.837C276.175 120.957 276.125 121.047 276.055 121.136C275.805 121.556 275.486 121.885 275.057 122.144C274.897 122.234 274.738 122.324 274.578 122.394C274.418 122.454 274.269 122.514 274.109 122.554C273.59 122.693 273.071 122.713 272.542 122.634C272.363 122.604 272.163 122.574 271.973 122.514C271.784 122.464 271.584 122.414 271.395 122.334C271.205 122.274 271.015 122.174 270.826 122.085C270.467 121.915 270.097 121.705 269.768 121.506C269.718 121.466 269.668 121.426 269.608 121.386C269.399 121.256 269.209 121.116 269.01 120.957C268.97 120.927 268.92 120.897 268.88 120.857C268.71 120.737 268.561 120.597 268.401 120.468C268.271 120.368 268.141 120.248 268.022 120.128C267.732 119.869 267.493 119.639 267.293 119.439C267.243 119.38 267.193 119.31 267.134 119.27C267.094 119.22 267.054 119.18 267.014 119.14C266.944 119.06 266.894 119.01 266.874 118.98C266.904 119.1 267.094 119.709 267.233 120.577C267.233 120.577 267.233 120.587 267.243 120.607C267.253 120.737 267.283 120.877 267.303 121.037C267.303 121.086 267.313 121.136 267.313 121.206C267.363 121.526 267.393 121.885 267.403 122.254C267.413 122.314 267.413 122.384 267.413 122.444C267.493 124.48 267.064 126.876 264.978 128.103C264.449 128.413 263.89 128.553 263.341 128.553C263.172 128.553 263.002 128.543 262.832 128.513H262.803C262.633 128.483 262.463 128.453 262.314 128.413C262.134 128.363 261.964 128.293 261.795 128.233C261.625 128.173 261.455 128.093 261.286 128.004C261.036 127.884 260.807 127.744 260.577 127.584C260.447 127.495 260.318 127.415 260.198 127.315C259.779 127.025 259.4 126.696 259.02 126.347L258.801 126.127C257.464 124.829 256.446 123.382 256.057 122.813C255.957 122.644 255.887 122.554 255.887 122.554L252.135 103.259C254.26 102.102 257.394 99.9856 258.871 96.9312L275.257 111.065C275.257 111.065 275.257 111.075 275.267 111.105C275.346 111.295 275.626 112.073 275.925 113.151C275.985 113.381 276.055 113.63 276.115 113.89C276.175 114.139 276.235 114.399 276.284 114.658C276.334 114.838 276.374 115.018 276.404 115.217C276.524 115.776 276.594 116.355 276.654 116.944C276.664 117.124 276.684 117.303 276.694 117.473H276.724Z" fill="white"/>
<path d="M258.891 96.9412C257.414 99.9856 254.28 102.112 252.155 103.27L250.818 96.4022L253.931 92.6592L258.891 96.9512V96.9412Z" fill="#29275F"/>
<path d="M364.271 383.5C363.942 383.5 363.642 383.28 363.553 382.941L339.593 292.608C337.637 290.532 314.694 265.998 303.618 248.39C301.602 245.186 299.795 242.342 298.189 239.816C290.455 227.649 287.252 222.618 286.403 217.488C285.525 212.098 279.188 172.97 277.841 164.636C277.652 163.518 278.001 162.36 278.789 161.531C278.889 161.402 279.049 161.252 279.248 161.102C280.775 159.954 283.27 158.707 286.423 159.346C290.345 160.144 294.137 163.648 297.69 169.786C306.422 184.858 307.939 203.623 308.198 209.323L330.432 246.833C332.667 246.304 341.858 243.739 348.504 236.123L325.951 198.044L302.849 165.544C301.302 164.875 290.684 160.234 280.336 155.353C271.584 151.221 267.513 139.902 269.139 134.581C269.868 132.196 271.684 131.038 274.109 131.417C276.883 131.846 282.761 133.853 291.573 137.396C302.161 141.628 313.806 146.789 316.181 147.857C321.091 143.804 328.506 145.521 330.102 145.95C331.39 145.322 336.908 142.846 342.536 143.665C349.352 144.673 377.364 171.633 381.625 180.097C386.006 188.751 395.835 266.227 396.454 271.118L453.655 382.402C453.845 382.771 453.695 383.22 453.336 383.41C452.966 383.6 452.517 383.45 452.328 383.091L395.067 271.687C395.027 271.607 394.997 271.528 394.987 271.438C394.887 270.619 384.599 189.3 380.288 180.776C375.857 171.992 348.175 146.02 342.317 145.152C336.499 144.303 330.581 147.388 330.521 147.418C330.342 147.507 330.142 147.527 329.953 147.468C329.873 147.438 321.56 144.962 316.81 149.284C316.59 149.484 316.271 149.534 316.002 149.414C315.872 149.354 302.779 143.495 291.014 138.784C282.432 135.34 276.504 133.294 273.879 132.895C272.193 132.635 271.075 133.344 270.566 135.021C269.079 139.882 273.151 150.312 280.975 154.005C292.092 159.256 303.528 164.206 303.637 164.256C303.767 164.306 303.867 164.396 303.947 164.506L327.158 197.175C327.158 197.175 327.218 197.265 327.228 197.275L350.051 235.814C350.21 236.083 350.181 236.433 349.981 236.672C342.037 246.125 330.671 248.321 330.192 248.41C329.883 248.47 329.573 248.331 329.414 248.061L306.801 209.922C306.741 209.812 306.701 209.692 306.701 209.572C306.472 204.192 305.045 185.487 296.383 170.535C293.05 164.785 289.597 161.511 286.114 160.813C283.509 160.284 281.414 161.332 280.126 162.31C280.017 162.39 279.947 162.45 279.897 162.52C279.398 163.049 279.188 163.727 279.298 164.386C280.645 172.731 286.982 211.848 287.86 217.238C288.659 222.069 291.812 227.02 299.436 239.008C301.043 241.533 302.849 244.378 304.875 247.582C316.311 265.758 340.561 291.451 340.8 291.71C340.89 291.8 340.95 291.91 340.98 292.03L364.99 382.542C365.099 382.941 364.86 383.35 364.461 383.46C364.401 383.48 364.331 383.49 364.271 383.49V383.5Z" fill="#29275F"/>
<path d="M319.265 230.224C319.006 230.224 318.756 230.084 318.616 229.855L306.811 209.932C306.751 209.822 306.711 209.702 306.711 209.582C306.482 204.202 305.055 185.497 296.393 170.545C293.06 164.795 289.607 161.522 286.124 160.823C283.52 160.294 281.424 161.342 280.137 162.32C280.027 162.4 279.957 162.46 279.907 162.53C279.747 162.719 279.508 162.819 279.268 162.809C279.019 162.789 278.799 162.659 278.68 162.44L255.438 123.193C255.229 122.843 255.338 122.394 255.678 122.174C256.017 121.955 256.466 122.055 256.695 122.384C257.165 123.073 258.132 124.41 259.34 125.588L259.569 125.818C259.979 126.197 260.318 126.476 260.647 126.706C260.777 126.816 260.847 126.856 260.907 126.906L261.026 126.986C261.216 127.115 261.416 127.235 261.635 127.335C261.805 127.425 261.945 127.495 262.094 127.545C262.244 127.604 262.394 127.664 262.553 127.704C262.653 127.724 262.783 127.764 262.913 127.784C262.932 127.784 262.962 127.784 262.972 127.784C263.541 127.874 264.1 127.764 264.619 127.465C266.086 126.596 266.774 124.919 266.685 122.474C266.685 122.434 266.675 122.314 266.675 122.274C266.665 121.935 266.645 121.616 266.595 121.316C266.595 121.276 266.595 121.236 266.595 121.196C266.595 121.166 266.595 121.136 266.595 121.116C266.575 120.977 266.555 120.867 266.545 120.777C266.545 120.757 266.535 120.727 266.525 120.707C266.415 120.058 266.285 119.569 266.216 119.33C266.196 119.24 266.176 119.18 266.166 119.15C266.096 118.821 266.246 118.491 266.545 118.332C266.834 118.172 267.204 118.232 267.433 118.461C267.473 118.501 267.533 118.571 267.613 118.661C267.623 118.671 267.663 118.701 267.693 118.751C267.772 118.831 267.842 118.911 267.892 118.97C268.022 119.1 268.261 119.32 268.531 119.569C268.671 119.719 268.77 119.799 268.87 119.879L269.01 119.999C269.11 120.078 269.199 120.168 269.299 120.238C269.339 120.268 269.369 120.288 269.399 120.328C269.639 120.518 269.808 120.637 269.988 120.757L270.197 120.907C270.517 121.096 270.836 121.276 271.125 121.406L271.225 121.446C271.355 121.506 271.485 121.576 271.624 121.616C271.824 121.695 271.994 121.735 272.153 121.785C272.343 121.845 272.463 121.875 272.592 121.885C273.111 121.955 273.52 121.935 273.91 121.835C274.049 121.805 274.169 121.765 274.289 121.715C274.419 121.665 274.548 121.586 274.678 121.516C274.977 121.336 275.217 121.086 275.407 120.767C275.456 120.687 275.486 120.637 275.516 120.587C275.516 120.567 275.526 120.547 275.536 120.538C275.616 120.378 275.676 120.208 275.736 120.038C275.736 120.018 275.786 119.859 275.796 119.849C275.796 119.809 275.816 119.749 275.836 119.699C275.836 119.669 275.846 119.619 275.846 119.619L275.866 119.519L275.885 119.42C275.915 119.28 275.935 119.1 275.945 118.93C275.945 118.891 275.945 118.851 275.965 118.811C275.995 118.382 275.995 117.992 275.965 117.543L275.925 117.024C275.876 116.435 275.796 115.886 275.696 115.397C275.666 115.187 275.636 115.038 275.596 114.888C275.536 114.589 275.486 114.339 275.426 114.109C275.357 113.85 275.297 113.61 275.237 113.381C274.957 112.353 274.678 111.594 274.598 111.414C274.449 111.055 274.608 110.636 274.957 110.466C275.307 110.296 275.736 110.416 275.935 110.756L291.932 137.746C292.092 138.025 292.062 138.374 291.852 138.614C291.643 138.854 291.303 138.943 291.004 138.824C282.422 135.38 276.504 133.344 273.87 132.935C272.183 132.675 271.066 133.384 270.557 135.061C269.07 139.922 273.141 150.352 280.965 154.045C292.082 159.296 303.518 164.246 303.628 164.296C303.757 164.346 303.857 164.436 303.937 164.546L327.149 197.215C327.149 197.215 327.209 197.305 327.219 197.315L339.253 217.638C339.413 217.907 339.383 218.256 339.184 218.506C331.22 227.968 319.854 230.154 319.375 230.244C319.325 230.244 319.285 230.254 319.235 230.254L319.265 230.224ZM308.198 209.343L319.634 228.637C321.87 228.108 331.061 225.553 337.717 217.927L325.951 198.074L302.849 165.574C301.303 164.905 290.685 160.264 280.336 155.383C271.584 151.251 267.513 139.932 269.14 134.611C269.868 132.226 271.684 131.068 274.109 131.447C276.664 131.847 281.853 133.573 289.527 136.608L277.323 116.026C277.362 116.295 277.392 116.595 277.422 116.894L277.462 117.433C277.492 117.992 277.492 118.481 277.452 118.93C277.452 118.93 277.452 119.01 277.432 119.1C277.412 119.31 277.392 119.519 277.352 119.729C277.352 119.729 277.332 119.829 277.323 119.839C277.303 119.939 277.283 120.038 277.253 120.138C277.233 120.208 277.223 120.278 277.193 120.348C277.193 120.368 277.183 120.398 277.183 120.398C277.093 120.687 277.013 120.897 276.923 121.106C276.913 121.136 276.903 121.176 276.883 121.206C276.814 121.346 276.744 121.466 276.654 121.596C276.365 122.085 275.955 122.494 275.436 122.813C275.247 122.923 275.037 123.033 274.858 123.113C274.668 123.193 274.478 123.252 274.289 123.302C273.72 123.462 273.101 123.492 272.433 123.392C272.223 123.382 271.964 123.322 271.714 123.242C271.545 123.203 271.325 123.143 271.105 123.053C270.956 123.003 270.776 122.923 270.587 122.833C270.157 122.634 269.798 122.434 269.359 122.164L269.15 122.015C268.97 121.905 268.75 121.745 268.531 121.566C268.521 121.566 268.461 121.516 268.401 121.456C268.291 121.376 268.192 121.296 268.082 121.206C268.122 121.496 268.152 121.815 268.162 122.204C268.172 122.294 268.172 122.384 268.172 122.474C268.281 125.438 267.313 127.634 265.367 128.782C264.559 129.251 263.671 129.421 262.783 129.301C262.753 129.301 262.733 129.301 262.713 129.301C262.523 129.271 262.324 129.231 262.154 129.181C261.925 129.122 261.735 129.042 261.545 128.972C261.346 128.892 261.156 128.802 260.957 128.702C260.747 128.603 260.498 128.453 260.188 128.253L260.128 128.213L279.518 160.963C281.055 159.875 283.45 158.797 286.424 159.395C290.345 160.194 294.137 163.697 297.69 169.836C306.422 184.908 307.939 203.673 308.198 209.373V209.343Z" fill="#29275F"/>
<path d="M330.073 248.45C329.813 248.45 329.564 248.311 329.424 248.081L318.617 229.865C318.497 229.655 318.477 229.396 318.577 229.176C318.676 228.956 318.886 228.797 319.125 228.747C319.235 228.727 330.452 226.561 338.056 217.518C338.216 217.328 338.445 217.228 338.695 217.258C338.934 217.278 339.154 217.418 339.273 217.627L350.061 235.844C350.221 236.113 350.191 236.463 349.991 236.702C342.048 246.155 330.681 248.351 330.202 248.44C330.152 248.44 330.113 248.45 330.063 248.45H330.073ZM320.433 229.985L330.432 246.853C332.667 246.324 341.858 243.759 348.504 236.143L338.515 219.274C331.929 226.601 323.377 229.256 320.433 229.985Z" fill="#29275F"/>
<path d="M263.361 129.321C263.172 129.321 262.982 129.311 262.783 129.281C262.753 129.281 262.733 129.281 262.713 129.281C262.523 129.251 262.324 129.211 262.154 129.161C261.924 129.102 261.735 129.022 261.545 128.952C261.346 128.872 261.156 128.782 260.956 128.682C260.747 128.583 260.497 128.433 260.188 128.233L260.078 128.163C259.959 128.083 259.839 128.004 259.729 127.904C259.41 127.694 259.02 127.375 258.541 126.926L258.302 126.686C257.005 125.428 255.967 124.001 255.468 123.262C255.368 123.103 255.308 123.023 255.308 123.013C255.248 122.923 255.208 122.823 255.188 122.723L250.099 96.5619C250.059 96.3423 250.119 96.1128 250.259 95.9431L253.372 92.2C253.502 92.0403 253.682 91.9505 253.891 91.9305C254.091 91.9205 254.29 91.9804 254.44 92.1102L275.786 110.536C275.905 110.636 275.985 110.766 276.025 110.915C276.165 111.275 276.424 112.023 276.694 112.991C276.763 113.231 276.823 113.481 276.893 113.75C276.963 114 277.013 114.279 277.073 114.549C277.123 114.708 277.163 114.918 277.193 115.147C277.292 115.637 277.382 116.245 277.442 116.904L277.482 117.443C277.482 117.443 277.482 117.453 277.482 117.463C277.512 118.012 277.512 118.491 277.472 118.94C277.472 118.94 277.472 119.02 277.452 119.11C277.432 119.32 277.412 119.529 277.372 119.739C277.372 119.739 277.352 119.839 277.342 119.849C277.322 119.949 277.302 120.048 277.272 120.148C277.252 120.218 277.243 120.288 277.213 120.358C277.213 120.378 277.203 120.408 277.203 120.408C277.113 120.697 277.033 120.907 276.943 121.116C276.933 121.146 276.923 121.186 276.903 121.216C276.833 121.356 276.764 121.476 276.674 121.606C276.384 122.095 275.975 122.504 275.456 122.823C275.267 122.933 275.057 123.043 274.877 123.123C274.688 123.203 274.498 123.262 274.309 123.312C273.74 123.472 273.121 123.502 272.452 123.402C272.243 123.372 272.023 123.332 271.794 123.272C271.554 123.213 271.345 123.153 271.125 123.063C270.976 123.013 270.796 122.933 270.606 122.843C270.177 122.644 269.818 122.444 269.379 122.174L269.169 122.025C268.99 121.915 268.77 121.755 268.551 121.576C268.541 121.576 268.481 121.526 268.421 121.466C268.311 121.386 268.211 121.306 268.102 121.216C268.141 121.506 268.171 121.825 268.181 122.214C268.191 122.304 268.191 122.394 268.191 122.484C268.301 125.448 267.333 127.644 265.387 128.792C264.759 129.161 264.08 129.351 263.371 129.351L263.361 129.321ZM262.902 127.784C262.902 127.784 262.952 127.784 262.962 127.784C263.531 127.874 264.09 127.764 264.609 127.465C266.076 126.596 266.764 124.919 266.675 122.474C266.675 122.434 266.665 122.314 266.665 122.274C266.655 121.935 266.635 121.615 266.585 121.316C266.585 121.276 266.585 121.236 266.585 121.196C266.585 121.166 266.585 121.136 266.585 121.116C266.565 120.977 266.545 120.867 266.535 120.777C266.535 120.757 266.525 120.727 266.515 120.707C266.405 120.058 266.275 119.569 266.206 119.33C266.186 119.24 266.166 119.18 266.156 119.15C266.086 118.821 266.235 118.491 266.535 118.332C266.824 118.172 267.193 118.232 267.423 118.461C267.463 118.501 267.523 118.571 267.603 118.661C267.613 118.671 267.652 118.701 267.682 118.751C267.762 118.831 267.832 118.911 267.882 118.97C268.012 119.1 268.251 119.32 268.521 119.569C268.64 119.689 268.75 119.789 268.86 119.879L269 119.998C269.099 120.078 269.189 120.168 269.289 120.238C269.329 120.268 269.359 120.288 269.389 120.328C269.628 120.518 269.798 120.637 269.978 120.757L270.187 120.907C270.507 121.096 270.826 121.276 271.115 121.406L271.215 121.446C271.345 121.506 271.475 121.576 271.614 121.615C271.814 121.695 271.983 121.735 272.143 121.785C272.323 121.835 272.482 121.865 272.642 121.885C273.111 121.955 273.52 121.935 273.909 121.825C274.049 121.795 274.169 121.755 274.289 121.705C274.418 121.655 274.548 121.576 274.678 121.506C274.977 121.326 275.217 121.076 275.406 120.757C275.456 120.677 275.486 120.627 275.516 120.577C275.516 120.557 275.526 120.537 275.536 120.528C275.616 120.368 275.676 120.198 275.736 120.028C275.736 120.008 275.786 119.849 275.796 119.839C275.796 119.799 275.815 119.739 275.835 119.689C275.835 119.659 275.845 119.609 275.845 119.609L275.865 119.509L275.885 119.41C275.915 119.27 275.935 119.09 275.945 118.92C275.945 118.881 275.945 118.841 275.965 118.801C275.995 118.371 275.995 117.982 275.965 117.533L275.925 117.014C275.875 116.425 275.796 115.876 275.696 115.387C275.666 115.177 275.636 115.028 275.596 114.878C275.536 114.579 275.486 114.329 275.426 114.099C275.356 113.84 275.297 113.6 275.237 113.371C274.997 112.502 274.758 111.824 274.648 111.524L254.021 93.7172L251.626 96.6019L256.625 122.264C256.625 122.264 256.685 122.354 256.725 122.424C257.174 123.093 258.152 124.43 259.36 125.598L259.589 125.828C259.998 126.207 260.338 126.486 260.667 126.716C260.797 126.826 260.867 126.866 260.927 126.916L261.046 126.996C261.236 127.125 261.435 127.245 261.655 127.345C261.825 127.435 261.964 127.505 262.114 127.554C262.264 127.614 262.413 127.674 262.573 127.714C262.673 127.734 262.803 127.774 262.932 127.794L262.902 127.784Z" fill="#29275F"/>
<path d="M273.999 132.925C273.72 132.925 273.46 132.775 273.33 132.505L267.343 120.468C267.163 120.098 267.313 119.649 267.682 119.459C268.051 119.27 268.501 119.43 268.69 119.799L274.678 131.837C274.857 132.206 274.708 132.655 274.338 132.845C274.229 132.895 274.119 132.925 274.009 132.925H273.999Z" fill="#29275F"/>
<path d="M322.009 210.98C321.76 210.98 321.51 210.85 321.37 210.62L306.491 186.485C306.272 186.136 306.382 185.677 306.741 185.457C307.09 185.238 307.549 185.347 307.769 185.707L322.648 209.842C322.867 210.191 322.757 210.65 322.398 210.87C322.278 210.95 322.139 210.98 322.009 210.98Z" fill="#29275F"/>
<path d="M349.422 186.845C349.212 186.845 349.013 186.765 348.863 186.595L315.752 149.254C315.483 148.945 315.503 148.476 315.812 148.196C316.121 147.927 316.59 147.947 316.87 148.256L349.981 185.597C350.25 185.906 350.23 186.375 349.921 186.655C349.781 186.785 349.602 186.845 349.422 186.845Z" fill="#29275F"/>
<path d="M361.257 175.795C361.078 175.795 360.898 175.735 360.759 175.595L329.673 147.318C329.364 147.038 329.344 146.569 329.623 146.26C329.903 145.95 330.372 145.93 330.681 146.21L361.766 174.487C362.076 174.767 362.096 175.236 361.816 175.546C361.667 175.705 361.467 175.795 361.267 175.795H361.257Z" fill="#29275F"/>
<path d="M340.261 292.988C339.912 292.988 339.603 292.748 339.533 292.389C339.453 291.98 339.703 291.59 340.112 291.501C340.202 291.481 349.233 289.574 354.641 287.458C355.031 287.308 355.46 287.498 355.609 287.877C355.759 288.267 355.569 288.696 355.19 288.845C349.672 291.001 340.8 292.878 340.431 292.958C340.381 292.968 340.331 292.978 340.271 292.978L340.261 292.988Z" fill="#29275F"/>
<path d="M104.632 82.2485C106.512 82.2485 108.035 80.7246 108.035 78.8448C108.035 76.965 106.512 75.4411 104.632 75.4411C102.753 75.4411 101.229 76.965 101.229 78.8448C101.229 80.7246 102.753 82.2485 104.632 82.2485Z" fill="#AFD4EF"/>
<path d="M121.088 82.2485C119.202 82.2485 117.685 80.7213 117.685 78.8448C117.685 76.9683 119.212 75.4411 121.088 75.4411C122.964 75.4411 124.491 76.9683 124.491 78.8448C124.491 80.7213 122.964 82.2485 121.088 82.2485Z" fill="#AFD4EF"/>
<path d="M104.632 98.708C106.512 98.708 108.035 97.1841 108.035 95.3043C108.035 93.4245 106.512 91.9006 104.632 91.9006C102.753 91.9006 101.229 93.4245 101.229 95.3043C101.229 97.1841 102.753 98.708 104.632 98.708Z" fill="#AFD4EF"/>
<path d="M104.632 115.167C106.512 115.167 108.035 113.644 108.035 111.764C108.035 109.884 106.512 108.36 104.632 108.36C102.753 108.36 101.229 109.884 101.229 111.764C101.229 113.644 102.753 115.167 104.632 115.167Z" fill="#AFD4EF"/>
<path d="M104.632 131.637C106.512 131.637 108.035 130.113 108.035 128.233C108.035 126.353 106.512 124.83 104.632 124.83C102.753 124.83 101.229 126.353 101.229 128.233C101.229 130.113 102.753 131.637 104.632 131.637Z" fill="#AFD4EF"/>
<path d="M101.219 144.693C101.219 142.806 102.746 141.289 104.622 141.289C106.498 141.289 108.025 142.816 108.025 144.693C108.025 146.569 106.498 148.096 104.622 148.096C102.746 148.096 101.219 146.569 101.219 144.693Z" fill="#AFD4EF"/>
<path d="M121.088 98.718C119.202 98.718 117.685 97.1908 117.685 95.3143C117.685 93.4377 119.212 91.9106 121.088 91.9106C122.964 91.9106 124.491 93.4377 124.491 95.3143C124.491 97.1908 122.964 98.718 121.088 98.718Z" fill="#AFD4EF"/>
<path d="M117.675 111.764C117.675 109.877 119.202 108.36 121.078 108.36C122.954 108.36 124.481 109.887 124.481 111.764C124.481 113.64 122.954 115.167 121.078 115.167C119.202 115.167 117.675 113.64 117.675 111.764Z" fill="#AFD4EF"/>
<path d="M117.675 128.233C117.675 126.347 119.202 124.83 121.078 124.83C122.954 124.83 124.481 126.357 124.481 128.233C124.481 130.11 122.954 131.637 121.078 131.637C119.202 131.637 117.675 130.11 117.675 128.233Z" fill="#AFD4EF"/>
<path d="M117.675 144.693C117.675 142.806 119.202 141.289 121.078 141.289C122.954 141.289 124.481 142.816 124.481 144.693C124.481 146.569 122.954 148.096 121.078 148.096C119.202 148.096 117.675 146.569 117.675 144.693Z" fill="#AFD4EF"/>
<path d="M104.632 164.556C106.512 164.556 108.035 163.032 108.035 161.152C108.035 159.272 106.512 157.749 104.632 157.749C102.753 157.749 101.229 159.272 101.229 161.152C101.229 163.032 102.753 164.556 104.632 164.556Z" fill="#AFD4EF"/>
<path d="M117.675 161.152C117.675 159.266 119.202 157.749 121.078 157.749C122.954 157.749 124.481 159.276 124.481 161.152C124.481 163.029 122.954 164.556 121.078 164.556C119.202 164.556 117.675 163.029 117.675 161.152Z" fill="#AFD4EF"/>
<path d="M356.567 82.4182C354.681 82.4182 353.164 80.891 353.164 79.0145C353.164 77.138 354.691 75.6108 356.567 75.6108C358.443 75.6108 359.97 77.138 359.97 79.0145C359.97 80.891 358.443 82.4182 356.567 82.4182Z" fill="#AFD4EF"/>
<path d="M373.023 82.4182C371.137 82.4182 369.62 80.891 369.62 79.0145C369.62 77.138 371.147 75.6108 373.023 75.6108C374.899 75.6108 376.426 77.138 376.426 79.0145C376.426 80.891 374.899 82.4182 373.023 82.4182Z" fill="#AFD4EF"/>
<path d="M356.567 98.8776C358.446 98.8776 359.97 97.3538 359.97 95.4739C359.97 93.5941 358.446 92.0703 356.567 92.0703C354.688 92.0703 353.164 93.5941 353.164 95.4739C353.164 97.3538 354.688 98.8776 356.567 98.8776Z" fill="#AFD4EF"/>
<path d="M356.567 115.337C358.446 115.337 359.97 113.813 359.97 111.933C359.97 110.054 358.446 108.53 356.567 108.53C354.688 108.53 353.164 110.054 353.164 111.933C353.164 113.813 354.688 115.337 356.567 115.337Z" fill="#AFD4EF"/>
<path d="M356.567 131.797C358.446 131.797 359.97 130.273 359.97 128.393C359.97 126.513 358.446 124.989 356.567 124.989C354.688 124.989 353.164 126.513 353.164 128.393C353.164 130.273 354.688 131.797 356.567 131.797Z" fill="#AFD4EF"/>
<path d="M373.023 98.8776C374.902 98.8776 376.426 97.3538 376.426 95.4739C376.426 93.5941 374.902 92.0703 373.023 92.0703C371.144 92.0703 369.62 93.5941 369.62 95.4739C369.62 97.3538 371.144 98.8776 373.023 98.8776Z" fill="#AFD4EF"/>
<path d="M373.023 115.337C374.902 115.337 376.426 113.813 376.426 111.933C376.426 110.054 374.902 108.53 373.023 108.53C371.144 108.53 369.62 110.054 369.62 111.933C369.62 113.813 371.144 115.337 373.023 115.337Z" fill="#AFD4EF"/>
<path d="M373.023 131.797C374.902 131.797 376.426 130.273 376.426 128.393C376.426 126.513 374.902 124.989 373.023 124.989C371.144 124.989 369.62 126.513 369.62 128.393C369.62 130.273 371.144 131.797 373.023 131.797Z" fill="#AFD4EF"/>
<path d="M339.573 81.8392C341.452 81.8392 342.976 80.3154 342.976 78.4356C342.976 76.5557 341.452 75.0319 339.573 75.0319C337.693 75.0319 336.17 76.5557 336.17 78.4356C336.17 80.3154 337.693 81.8392 339.573 81.8392Z" fill="#AFD4EF"/>
<path d="M339.572 98.3087C341.452 98.3087 342.975 96.7848 342.975 94.905C342.975 93.0252 341.452 91.5013 339.572 91.5013C337.693 91.5013 336.169 93.0252 336.169 94.905C336.169 96.7848 337.693 98.3087 339.572 98.3087Z" fill="#AFD4EF"/>
<path d="M339.572 114.768C341.452 114.768 342.975 113.244 342.975 111.365C342.975 109.485 341.452 107.961 339.572 107.961C337.693 107.961 336.169 109.485 336.169 111.365C336.169 113.244 337.693 114.768 339.572 114.768Z" fill="#AFD4EF"/>
<path d="M336.16 127.824C336.16 125.937 337.686 124.42 339.563 124.42C341.439 124.42 342.965 125.947 342.965 127.824C342.965 129.7 341.439 131.228 339.563 131.228C337.686 131.228 336.16 129.7 336.16 127.824Z" fill="#AFD4EF"/>
<path d="M358.573 9.24379C358.573 10.2918 357.725 11.1403 356.677 11.1403H351.727V16.0911C351.727 17.1392 350.879 17.9876 349.831 17.9876C349.302 17.9876 348.833 17.778 348.484 17.4286C348.145 17.0793 347.925 16.6101 347.925 16.0811V11.1303H342.976C341.928 11.1303 341.08 10.2819 341.08 9.23381C341.08 8.70479 341.289 8.23566 341.638 7.88631C341.988 7.54694 342.457 7.32734 342.986 7.32734H347.935V2.39648C347.935 1.34843 348.784 0.5 349.831 0.5C350.36 0.5 350.829 0.709611 351.179 1.05896C351.518 1.40832 351.737 1.87745 351.737 2.40647V7.34731H356.687C357.735 7.34731 358.583 8.19573 358.583 9.24379H358.573Z" fill="#AFD4EF"/>
<path d="M354.532 30.5643C351.239 30.5643 351.229 35.6948 354.532 35.6948C357.835 35.6948 357.835 30.5643 354.532 30.5643Z" fill="#AFD4EF"/>
<path d="M378.053 9.76282C374.749 9.76282 374.749 14.8933 378.053 14.8933C381.356 14.8933 381.356 9.76282 378.053 9.76282Z" fill="#AFD4EF"/>
<path d="M438.058 92.9985C438.058 94.0466 437.209 94.895 436.161 94.895H431.212V99.8458C431.212 100.894 430.364 101.742 429.316 101.742C428.787 101.742 428.318 101.533 427.969 101.183C427.629 100.834 427.41 100.365 427.41 99.8358V94.885H422.46C421.412 94.885 420.564 94.0366 420.564 92.9885C420.564 92.4595 420.774 91.9904 421.123 91.641C421.472 91.3016 421.941 91.082 422.47 91.082H427.42V86.1312C427.42 85.0832 428.268 84.2347 429.316 84.2347C429.845 84.2347 430.314 84.4444 430.663 84.7937C431.002 85.1431 431.222 85.6122 431.222 86.1412V91.092H436.171C437.219 91.092 438.068 91.9405 438.068 92.9885L438.058 92.9985Z" fill="#AFD4EF"/>
<path d="M409.986 108.39C406.693 108.39 406.683 113.521 409.986 113.521C413.289 113.521 413.289 108.39 409.986 108.39Z" fill="#AFD4EF"/>
<path d="M412.76 70.8596C409.467 70.8596 409.457 75.99 412.76 75.99C416.063 75.99 416.063 70.8596 412.76 70.8596Z" fill="#AFD4EF"/>
<path d="M133.243 31.762C133.243 32.8101 132.394 33.6585 131.347 33.6585H126.397V38.6094C126.397 39.6574 125.549 40.5058 124.501 40.5058C123.972 40.5058 123.503 40.2962 123.154 39.9469C122.814 39.5975 122.595 39.1284 122.595 38.5994V33.6485H117.645C116.597 33.6485 115.749 32.8001 115.749 31.7521C115.749 31.223 115.959 30.7539 116.308 30.4046C116.657 30.0652 117.126 29.8456 117.655 29.8456H122.605V24.8948C122.605 23.8467 123.453 22.9983 124.501 22.9983C125.03 22.9983 125.499 23.2079 125.848 23.5573C126.187 23.9066 126.407 24.3757 126.407 24.9048V29.8556H131.357C132.404 29.8556 133.253 30.704 133.253 31.7521L133.243 31.762Z" fill="#AFD4EF"/>
<path d="M102.327 25.4338C99.0337 25.4338 99.0238 30.5643 102.327 30.5643C105.63 30.5643 105.63 25.4338 102.327 25.4338Z" fill="#AFD4EF"/>
<path d="M138.232 7.47705C134.939 7.47705 134.929 12.6075 138.232 12.6075C141.535 12.6075 141.535 7.47705 138.232 7.47705Z" fill="#AFD4EF"/>
<path d="M55.3048 112.552C55.3048 113.6 54.4566 114.449 53.4088 114.449H48.4591V119.4C48.4591 120.448 47.6109 121.296 46.563 121.296C46.0341 121.296 45.5651 121.086 45.2159 120.737C44.8766 120.388 44.657 119.919 44.657 119.39V114.439H39.7073C38.6595 114.439 37.8113 113.59 37.8113 112.542C37.8113 112.013 38.0208 111.544 38.3701 111.195C38.7194 110.855 39.1884 110.636 39.7173 110.636H44.667V105.685C44.667 104.637 45.5152 103.789 46.563 103.789C47.0919 103.789 47.561 103.998 47.9102 104.347C48.2495 104.697 48.4691 105.166 48.4691 105.695V110.646H53.4188C54.4666 110.646 55.3148 111.494 55.3148 112.542L55.3048 112.552Z" fill="#AFD4EF"/>
<path d="M23.6707 106.673C20.3676 106.673 20.3676 111.804 23.6707 111.804C26.9738 111.804 26.9738 106.673 23.6707 106.673Z" fill="#AFD4EF"/>
</g>
<defs>
<clipPath id="clip0_49_1231">
<rect width="480" height="383" fill="white" transform="translate(0 0.5)"/>
</clipPath>
</defs>
</svg>
