<svg width="153" height="24" viewBox="0 0 153 24" fill="none" xmlns="http://www.w3.org/2000/svg">
<path d="M59.9795 6.87747C59.345 6.87747 58.7939 6.65204 58.3263 6.20118C57.8588 5.73362 57.625 5.17421 57.625 4.52296C57.625 3.87172 57.8588 3.32066 58.3263 2.8698C58.7939 2.40224 59.345 2.16846 59.9795 2.16846C60.6475 2.16846 61.2069 2.40224 61.6577 2.8698C62.1253 3.32066 62.3591 3.87172 62.3591 4.52296C62.3591 5.17421 62.1253 5.73362 61.6577 6.20118C61.2069 6.65204 60.6475 6.87747 59.9795 6.87747ZM58.1009 21.1047V8.58074H61.8832V21.1047H58.1009Z" fill="#747C87"/>
<path d="M64.9989 21.1047V8.58074H68.7811V9.85818C69.4992 8.82287 70.6597 8.30521 72.2628 8.30521C73.7824 8.30521 74.968 8.81452 75.8196 9.83313C76.6879 10.8518 77.1221 12.196 77.1221 13.8659V21.1047H73.3399V14.5171C73.3399 12.6636 72.6636 11.7368 71.311 11.7368C70.5595 11.7368 69.95 12.0123 69.4825 12.5634C69.0149 13.1144 68.7811 13.9326 68.7811 15.0181V21.1047H64.9989Z" fill="#747C87"/>
<path d="M83.5829 21.1047L78.0974 8.58074H82.2804L85.3112 16.1953L88.3671 8.58074H92.5751L87.0896 21.1047H83.5829Z" fill="#747C87"/>
<path d="M99.5533 21.3802C97.6163 21.3802 96.0216 20.7624 94.7692 19.5267C93.5335 18.291 92.9156 16.7213 92.9156 14.8177C92.9156 12.9474 93.5418 11.3945 94.7942 10.1588C96.0633 8.92306 97.6497 8.30521 99.5533 8.30521C100.472 8.30521 101.332 8.46384 102.133 8.78112C102.952 9.09839 103.67 9.55761 104.287 10.1588C104.922 10.7599 105.415 11.5364 105.765 12.4882C106.116 13.44 106.275 14.5171 106.241 15.7194H96.5977C96.6645 16.404 96.965 16.9802 97.4994 17.4477C98.0338 17.8986 98.7852 18.124 99.7537 18.124C100.305 18.124 100.806 18.0155 101.257 17.7984C101.707 17.5646 102.008 17.2807 102.158 16.9468H106.116C105.715 18.2659 104.914 19.3347 103.711 20.1529C102.509 20.9711 101.123 21.3802 99.5533 21.3802ZM99.4531 11.311C98.7351 11.311 98.1339 11.4946 97.6497 11.862C97.1821 12.2294 96.8648 12.7136 96.6979 13.3148H102.058C101.874 12.6302 101.532 12.1292 101.031 11.8119C100.547 11.478 100.021 11.311 99.4531 11.311Z" fill="#747C87"/>
<path d="M108.588 21.1047V8.58074H112.37V9.85818C113.088 8.82287 114.249 8.30521 115.852 8.30521C117.372 8.30521 118.557 8.81452 119.409 9.83313C120.277 10.8518 120.711 12.196 120.711 13.8659V21.1047H116.929V14.5171C116.929 12.6636 116.253 11.7368 114.9 11.7368C114.149 11.7368 113.539 12.0123 113.072 12.5634C112.604 13.1144 112.37 13.9326 112.37 15.0181V21.1047H108.588Z" fill="#747C87"/>
<path d="M125.535 6.87747C124.9 6.87747 124.349 6.65204 123.882 6.20118C123.414 5.73362 123.18 5.17421 123.18 4.52296C123.18 3.87172 123.414 3.32066 123.882 2.8698C124.349 2.40224 124.9 2.16846 125.535 2.16846C126.203 2.16846 126.762 2.40224 127.213 2.8698C127.68 3.32066 127.914 3.87172 127.914 4.52296C127.914 5.17421 127.68 5.73362 127.213 6.20118C126.762 6.65204 126.203 6.87747 125.535 6.87747ZM123.656 21.1047V8.58074H127.438V21.1047H123.656Z" fill="#747C87"/>
<path d="M130.554 21.1047V8.58074H134.336V10.4593C134.537 9.89158 134.912 9.41567 135.464 9.0316C136.015 8.63083 136.632 8.43045 137.317 8.43045C137.751 8.43045 138.16 8.48054 138.544 8.58074V12.4131C137.96 12.2127 137.401 12.1125 136.866 12.1125C136.065 12.1125 135.438 12.3964 134.988 12.9641C134.553 13.5152 134.336 14.2499 134.336 15.1683V21.1047H130.554Z" fill="#747C87"/>
<path d="M146.102 21.3802C144.165 21.3802 142.571 20.7624 141.318 19.5267C140.083 18.291 139.465 16.7213 139.465 14.8177C139.465 12.9474 140.091 11.3945 141.343 10.1588C142.612 8.92306 144.199 8.30521 146.102 8.30521C147.021 8.30521 147.881 8.46384 148.682 8.78112C149.501 9.09839 150.219 9.55761 150.836 10.1588C151.471 10.7599 151.964 11.5364 152.314 12.4882C152.665 13.44 152.824 14.5171 152.79 15.7194H143.147C143.214 16.404 143.514 16.9802 144.048 17.4477C144.583 17.8986 145.334 18.124 146.303 18.124C146.854 18.124 147.355 18.0155 147.806 17.7984C148.257 17.5646 148.557 17.2807 148.707 16.9468H152.665C152.264 18.2659 151.463 19.3347 150.26 20.1529C149.058 20.9711 147.672 21.3802 146.102 21.3802ZM146.002 11.311C145.284 11.311 144.683 11.4946 144.199 11.862C143.731 12.2294 143.414 12.7136 143.247 13.3148H148.607C148.424 12.6302 148.081 12.1292 147.58 11.8119C147.096 11.478 146.57 11.311 146.002 11.311Z" fill="#747C87"/>
<path fill-rule="evenodd" clip-rule="evenodd" d="M18.2053 0C21.5189 0 24.2053 2.68643 24.2053 6C24.2053 9.31357 21.5531 11.9681 18.2669 12C18.2464 12 18.2258 12 18.2053 12C14.8986 12 12.2167 14.675 12.2053 17.9795V18C12.2053 21.3136 9.51889 24 6.20532 24C2.89175 24 0.205322 21.3136 0.205322 18C0.205322 14.6864 2.84614 12.0456 6.12094 12C6.14831 12 6.17796 12 6.20532 12C9.51889 12 12.2053 9.31357 12.2053 6V5.94071C12.2373 2.6545 14.9123 0 18.2053 0ZM12.2053 5.94071C12.2053 5.96123 12.2053 5.98176 12.2053 6V5.94071Z" fill="#747C87"/>
<path fill-rule="evenodd" clip-rule="evenodd" d="M18.228 0C14.9145 0 12.228 2.68643 12.228 6C12.228 9.31357 14.8803 11.9681 18.1665 12C18.187 12 18.2075 12 18.228 12C21.5348 12 24.2166 14.675 24.228 17.9795C24.228 17.9863 24.228 17.9932 24.228 18C24.228 21.3136 26.9145 24 30.228 24C33.5416 24 36.228 21.3136 36.228 18C36.228 14.6864 33.5872 12.0456 30.3124 12C30.285 12 30.2554 12 30.228 12C26.9145 12 24.228 9.31357 24.228 6V5.94071C24.1961 2.6545 21.5211 0 18.228 0ZM24.228 5.94071C24.228 5.96123 24.228 5.98176 24.228 6V5.94071Z" fill="#747C87"/>
<path fill-rule="evenodd" clip-rule="evenodd" d="M18.2211 20.2943C19.4868 20.2943 20.5199 19.2612 20.5199 17.9955C20.5199 16.7298 19.4868 15.6968 18.2211 15.6968C16.9554 15.6968 15.9224 16.7298 15.9224 17.9955C15.9224 19.2612 16.9554 20.2943 18.2211 20.2943Z" fill="#747C87"/>
<path fill-rule="evenodd" clip-rule="evenodd" d="M42.2031 0C45.5167 0 48.2031 2.68643 48.2031 6C48.2031 9.31357 45.5509 11.9681 42.2647 12C42.2442 12 42.2236 12 42.2031 12C38.8964 12 36.2145 14.675 36.2031 17.9795C36.2031 17.9863 36.2031 17.9932 36.2031 18C36.2031 21.3136 33.5167 24 30.2031 24C26.8896 24 24.2031 21.3136 24.2031 18C24.2031 14.6864 26.8439 12.0456 30.1187 12C30.1461 12 30.1758 12 30.2031 12C33.5167 12 36.2031 9.31357 36.2031 6V5.94071C36.2351 2.6545 38.9101 0 42.2031 0ZM36.2031 5.94071C36.2031 5.96123 36.2031 5.98176 36.2031 6V5.94071Z" fill="#747C87"/>
<path fill-rule="evenodd" clip-rule="evenodd" d="M30.1552 8.16658C31.4209 8.16658 32.4539 7.13352 32.4539 5.86784C32.4539 4.60216 31.4209 3.56909 30.1552 3.56909C28.8895 3.56909 27.8564 4.60216 27.8564 5.86784C27.8564 7.13352 28.8895 8.16658 30.1552 8.16658Z" fill="#747C87"/>
</svg>
