<svg width="153" height="24" viewBox="0 0 153 24" fill="none" xmlns="http://www.w3.org/2000/svg">
<path d="M59.7742 6.87747C59.1396 6.87747 58.5886 6.65204 58.121 6.20118C57.6535 5.73362 57.4197 5.17421 57.4197 4.52296C57.4197 3.87172 57.6535 3.32066 58.121 2.8698C58.5886 2.40224 59.1396 2.16846 59.7742 2.16846C60.4421 2.16846 61.0015 2.40224 61.4524 2.8698C61.92 3.32066 62.1537 3.87172 62.1537 4.52296C62.1537 5.17421 61.92 5.73362 61.4524 6.20118C61.0015 6.65204 60.4421 6.87747 59.7742 6.87747ZM57.8956 21.1047V8.58074H61.6778V21.1047H57.8956Z" fill="#122454"/>
<path d="M64.7936 21.1047V8.58074H68.5758V9.85818C69.2938 8.82287 70.4544 8.30521 72.0575 8.30521C73.577 8.30521 74.7627 8.81452 75.6143 9.83313C76.4826 10.8518 76.9168 12.196 76.9168 13.8659V21.1047H73.1345V14.5171C73.1345 12.6636 72.4582 11.7368 71.1056 11.7368C70.3542 11.7368 69.7447 12.0123 69.2771 12.5634C68.8096 13.1144 68.5758 13.9326 68.5758 15.0181V21.1047H64.7936Z" fill="#122454"/>
<path d="M83.3776 21.1047L77.8921 8.58074H82.0751L85.1059 16.1953L88.1617 8.58074H92.3698L86.8843 21.1047H83.3776Z" fill="#122454"/>
<path d="M99.348 21.3802C97.411 21.3802 95.8162 20.7624 94.5639 19.5267C93.3281 18.291 92.7103 16.7213 92.7103 14.8177C92.7103 12.9474 93.3365 11.3945 94.5889 10.1588C95.858 8.92306 97.4444 8.30521 99.348 8.30521C100.266 8.30521 101.126 8.46384 101.928 8.78112C102.746 9.09839 103.464 9.55761 104.082 10.1588C104.717 10.7599 105.209 11.5364 105.56 12.4882C105.911 13.44 106.069 14.5171 106.036 15.7194H96.3923C96.4591 16.404 96.7597 16.9802 97.2941 17.4477C97.8284 17.8986 98.5799 18.124 99.5484 18.124C100.099 18.124 100.6 18.0155 101.051 17.7984C101.502 17.5646 101.803 17.2807 101.953 16.9468H105.911C105.51 18.2659 104.708 19.3347 103.506 20.1529C102.304 20.9711 100.918 21.3802 99.348 21.3802ZM99.2478 11.311C98.5298 11.311 97.9286 11.4946 97.4444 11.862C96.9768 12.2294 96.6595 12.7136 96.4925 13.3148H101.853C101.669 12.6302 101.327 12.1292 100.826 11.8119C100.342 11.478 99.8156 11.311 99.2478 11.311Z" fill="#122454"/>
<path d="M108.383 21.1047V8.58074H112.165V9.85818C112.883 8.82287 114.044 8.30521 115.647 8.30521C117.166 8.30521 118.352 8.81452 119.204 9.83313C120.072 10.8518 120.506 12.196 120.506 13.8659V21.1047H116.724V14.5171C116.724 12.6636 116.048 11.7368 114.695 11.7368C113.944 11.7368 113.334 12.0123 112.866 12.5634C112.399 13.1144 112.165 13.9326 112.165 15.0181V21.1047H108.383Z" fill="#122454"/>
<path d="M125.329 6.87747C124.695 6.87747 124.144 6.65204 123.676 6.20118C123.209 5.73362 122.975 5.17421 122.975 4.52296C122.975 3.87172 123.209 3.32066 123.676 2.8698C124.144 2.40224 124.695 2.16846 125.329 2.16846C125.997 2.16846 126.557 2.40224 127.008 2.8698C127.475 3.32066 127.709 3.87172 127.709 4.52296C127.709 5.17421 127.475 5.73362 127.008 6.20118C126.557 6.65204 125.997 6.87747 125.329 6.87747ZM123.451 21.1047V8.58074H127.233V21.1047H123.451Z" fill="#122454"/>
<path d="M130.349 21.1047V8.58074H134.131V10.4593C134.331 9.89158 134.707 9.41567 135.258 9.0316C135.809 8.63083 136.427 8.43045 137.112 8.43045C137.546 8.43045 137.955 8.48054 138.339 8.58074V12.4131C137.755 12.2127 137.195 12.1125 136.661 12.1125C135.859 12.1125 135.233 12.3964 134.782 12.9641C134.348 13.5152 134.131 14.2499 134.131 15.1683V21.1047H130.349Z" fill="#122454"/>
<path d="M145.897 21.3802C143.96 21.3802 142.365 20.7624 141.113 19.5267C139.877 18.291 139.259 16.7213 139.259 14.8177C139.259 12.9474 139.886 11.3945 141.138 10.1588C142.407 8.92306 143.993 8.30521 145.897 8.30521C146.816 8.30521 147.675 8.46384 148.477 8.78112C149.295 9.09839 150.013 9.55761 150.631 10.1588C151.266 10.7599 151.758 11.5364 152.109 12.4882C152.46 13.44 152.618 14.5171 152.585 15.7194H142.941C143.008 16.404 143.309 16.9802 143.843 17.4477C144.378 17.8986 145.129 18.124 146.097 18.124C146.649 18.124 147.149 18.0155 147.6 17.7984C148.051 17.5646 148.352 17.2807 148.502 16.9468H152.46C152.059 18.2659 151.257 19.3347 150.055 20.1529C148.853 20.9711 147.467 21.3802 145.897 21.3802ZM145.797 11.311C145.079 11.311 144.478 11.4946 143.993 11.862C143.526 12.2294 143.209 12.7136 143.042 13.3148H148.402C148.218 12.6302 147.876 12.1292 147.375 11.8119C146.891 11.478 146.365 11.311 145.797 11.311Z" fill="#122454"/>
<path fill-rule="evenodd" clip-rule="evenodd" d="M18 0C21.3136 0 24 2.68643 24 6C24 9.31357 21.3478 11.9681 18.0616 12C18.041 12 18.0205 12 18 12C14.6933 12 12.0114 14.675 12 17.9795V18C12 21.3136 9.31357 24 6 24C2.68643 24 0 21.3136 0 18C0 14.6864 2.64082 12.0456 5.91562 12C5.94299 12 5.97263 12 6 12C9.31357 12 12 9.31357 12 6V5.94071C12.0319 2.6545 14.707 0 18 0ZM12 5.94071C12 5.96123 12 5.98176 12 6V5.94071Z" fill="#3EEED0"/>
<path fill-rule="evenodd" clip-rule="evenodd" d="M18.0227 0C14.7091 0 12.0227 2.68643 12.0227 6C12.0227 9.31357 14.6749 11.9681 17.9611 12C17.9817 12 18.0022 12 18.0227 12C21.3294 12 24.0113 14.675 24.0227 17.9795C24.0227 17.9863 24.0227 17.9932 24.0227 18C24.0227 21.3136 26.7091 24 30.0227 24C33.3363 24 36.0227 21.3136 36.0227 18C36.0227 14.6864 33.3819 12.0456 30.1071 12C30.0797 12 30.0501 12 30.0227 12C26.7091 12 24.0227 9.31357 24.0227 6V5.94071C23.9908 2.6545 21.3157 0 18.0227 0ZM24.0227 5.94071C24.0227 5.96123 24.0227 5.98176 24.0227 6V5.94071Z" fill="#3EEED0"/>
<path fill-rule="evenodd" clip-rule="evenodd" d="M18.0158 20.2943C19.2815 20.2943 20.3145 19.2612 20.3145 17.9956C20.3145 16.7299 19.2815 15.6968 18.0158 15.6968C16.7501 15.6968 15.717 16.7299 15.717 17.9956C15.717 19.2612 16.7501 20.2943 18.0158 20.2943Z" fill="#122454"/>
<path fill-rule="evenodd" clip-rule="evenodd" d="M41.9978 0C45.3114 0 47.9978 2.68643 47.9978 6C47.9978 9.31357 45.3456 11.9681 42.0594 12C42.0388 12 42.0183 12 41.9978 12C38.6911 12 36.0092 14.675 35.9978 17.9795C35.9978 17.9863 35.9978 17.9932 35.9978 18C35.9978 21.3136 33.3114 24 29.9978 24C26.6842 24 23.9978 21.3136 23.9978 18C23.9978 14.6864 26.6386 12.0456 29.9134 12C29.9408 12 29.9704 12 29.9978 12C33.3114 12 35.9978 9.31357 35.9978 6V5.94071C36.0297 2.6545 38.7048 0 41.9978 0ZM35.9978 5.94071C35.9978 5.96123 35.9978 5.98176 35.9978 6V5.94071Z" fill="#3EEED0"/>
<path fill-rule="evenodd" clip-rule="evenodd" d="M29.9499 8.16652C31.2155 8.16652 32.2486 7.13345 32.2486 5.86778C32.2486 4.6021 31.2155 3.56903 29.9499 3.56903C28.6842 3.56903 27.6511 4.6021 27.6511 5.86778C27.6511 7.13345 28.6842 8.16652 29.9499 8.16652Z" fill="#122454"/>
</svg>
