<svg width="48" height="49" viewBox="0 0 48 49" fill="none" xmlns="http://www.w3.org/2000/svg">
<g clip-path="url(#clip0_34_1134)">
<path d="M32.0581 31.2835C30.9208 31.2835 29.9956 30.4827 29.9956 29.4984C29.9956 28.514 30.9208 27.7132 32.0581 27.7132C33.1954 27.7132 34.1206 28.514 34.1206 29.4984C34.1206 30.0161 34.5404 30.4359 35.0581 30.4359C35.5758 30.4359 35.9956 30.0161 35.9956 29.4984C35.9956 27.7804 34.7155 26.336 32.9956 25.9439V25.4563C32.9956 24.9386 32.5758 24.5188 32.0581 24.5188C31.5404 24.5188 31.1206 24.9386 31.1206 25.4563V25.9439C29.4007 26.336 28.1206 27.7804 28.1206 29.4984C28.1206 31.5166 29.8869 33.1585 32.0581 33.1585C33.1954 33.1585 34.1206 33.9593 34.1206 34.9437C34.1206 35.9281 33.1954 36.7289 32.0581 36.7289C30.9208 36.7289 29.9956 35.9281 29.9956 34.9437C29.9956 34.426 29.5758 34.0062 29.0581 34.0062C28.5404 34.0062 28.1206 34.426 28.1206 34.9437C28.1206 36.6617 29.4007 38.1062 31.1206 38.4982V38.9032C31.1206 39.4209 31.5404 39.8407 32.0581 39.8407C32.5758 39.8407 32.9956 39.4209 32.9956 38.9032V38.4982C34.7155 38.1062 35.9956 36.6617 35.9956 34.9437C35.9956 32.9254 34.2292 31.2835 32.0581 31.2835Z" fill="url(#paint0_linear_34_1134)"/>
<path d="M42.3262 25.7071C41.1016 23.7988 39.3762 22.2718 37.3367 21.2914C36.8699 21.0669 36.3097 21.2634 36.0855 21.7301C35.8611 22.1968 36.0575 22.7569 36.5242 22.9812C40.0784 24.6897 42.3748 28.3402 42.3748 32.2813C42.3748 33.9677 41.9591 35.6401 41.1728 37.1179C40.9296 37.575 41.103 38.1427 41.5601 38.3859C41.7003 38.4605 41.8511 38.496 41.9996 38.496C42.335 38.496 42.6595 38.3154 42.828 37.9986C43.7581 36.2508 44.2498 34.2737 44.2498 32.2813C44.2498 29.9413 43.5846 27.668 42.3262 25.7071Z" fill="url(#paint1_linear_34_1134)"/>
<path d="M33.5318 20.0939L33.4687 20.0938C32.9511 20.0938 32.5312 20.5135 32.5312 21.0313C32.5312 21.5491 32.9511 21.9688 33.4687 21.9688L33.523 21.9689C33.5245 21.9689 33.5259 21.9689 33.5275 21.9689C34.0432 21.9689 34.4625 21.5521 34.4649 21.0358C34.4673 20.518 34.0495 20.0963 33.5318 20.0939Z" fill="url(#paint2_linear_34_1134)"/>
<path d="M27.6005 41.5814C24.0464 39.8728 21.75 36.2222 21.75 32.2813C21.75 30.5949 22.1657 28.9225 22.952 27.4446C23.1951 26.9876 23.0218 26.4199 22.5647 26.1767C22.1077 25.9335 21.5398 26.1068 21.2967 26.5639C20.3666 28.3119 19.875 30.2889 19.875 32.2813C19.875 34.6213 20.5402 36.8945 21.7986 38.8555C23.0232 40.7638 24.7486 42.2908 26.7881 43.2713C26.9191 43.3343 27.0575 43.364 27.1937 43.364C27.5428 43.364 27.8779 43.1682 28.0393 42.8325C28.2635 42.3659 28.0671 41.8057 27.6005 41.5814Z" fill="url(#paint3_linear_34_1134)"/>
<path d="M30.6562 42.5938L30.6019 42.5936C30.0818 42.5926 29.6625 43.0088 29.6602 43.5267C29.6577 44.0444 30.0757 44.4661 30.5934 44.4686L30.6562 44.4688C31.1739 44.4688 31.5937 44.0489 31.5937 43.5313C31.5937 43.0136 31.1739 42.5938 30.6562 42.5938Z" fill="url(#paint4_linear_34_1134)"/>
<path d="M36.3195 16.922C36.2054 16.6501 36.0657 16.3939 35.903 16.1562H38.3437C40.7215 16.1562 42.6562 14.2216 42.6562 11.8437C42.6562 9.46586 40.7215 7.53124 38.3437 7.53124H30.8362C31.3135 6.8373 31.5937 5.99777 31.5937 5.09374C31.5937 2.71587 29.6591 0.78125 27.2812 0.78125H4.31249C1.93462 0.78125 0 2.71587 0 5.09374C0 7.47161 1.93462 9.40623 4.31249 9.40623H11.82C11.3427 10.1002 11.0625 10.9397 11.0625 11.8437C11.0625 12.7478 11.3426 13.5873 11.82 14.2812H9.37498C6.99711 14.2812 5.06249 16.2158 5.06249 18.5937C5.06249 19.9594 5.7013 21.178 6.69514 21.9687C5.7013 22.7594 5.06249 23.9781 5.06249 25.3437C5.06249 26.7094 5.7013 27.928 6.69514 28.7187C5.7013 29.5094 5.06249 30.728 5.06249 32.0937C5.06249 33.4593 5.7013 34.678 6.69514 35.4687C5.7013 36.2594 5.06249 37.478 5.06249 38.8437C5.06249 41.2215 6.99711 43.1562 9.37498 43.1562H20.4234C23.334 46.2693 27.4745 48.2188 32.0625 48.2188C40.8505 48.2188 48 41.0692 48 32.2813C48 24.9672 43.0472 18.789 36.3195 16.922ZM38.3437 9.40623C39.6878 9.40623 40.7812 10.4997 40.7812 11.8437C40.7812 13.1877 39.6878 14.2812 38.3437 14.2812H32.3437H15.375C14.0309 14.2812 12.9375 13.1877 12.9375 11.8437C12.9375 10.4997 14.0309 9.40623 15.375 9.40623H38.3437ZM4.31249 7.53124C2.9684 7.53124 1.875 6.43774 1.875 5.09374C1.875 3.74974 2.9684 2.65625 4.31249 2.65625H27.2812C28.6253 2.65625 29.7187 3.74974 29.7187 5.09374C29.7187 6.43774 28.6253 7.53124 27.2812 7.53124H4.31249ZM9.37498 16.1562H32.3437C32.7213 16.1562 33.0829 16.244 33.4073 16.4011C32.9638 16.3639 32.5155 16.3438 32.0625 16.3438C27.6614 16.3438 23.6715 18.1372 20.7845 21.0312H9.37498C8.03098 21.0312 6.93749 19.9377 6.93749 18.5937C6.93749 17.2497 8.03098 16.1562 9.37498 16.1562ZM9.37498 22.9062H19.1826C18.1184 24.3643 17.2955 26.0089 16.773 27.7812H9.37498C8.03089 27.7812 6.93749 26.6878 6.93749 25.3437C6.93749 23.9997 8.03089 22.9062 9.37498 22.9062ZM9.37498 29.6562H16.3425C16.2003 30.5105 16.1251 31.3872 16.1251 32.2813C16.1251 33.045 16.1803 33.7959 16.2846 34.5312H9.37498C8.03089 34.5312 6.93749 33.4378 6.93749 32.0937C6.93749 30.7496 8.03089 29.6562 9.37498 29.6562ZM9.37498 41.2812C8.03089 41.2812 6.93749 40.1878 6.93749 38.8437C6.93749 37.4996 8.03089 36.4062 9.37498 36.4062H16.6674C17.1405 38.1699 17.9089 39.8136 18.9167 41.2812H9.37498ZM32.0625 46.3438C24.3085 46.3438 18.0001 40.0353 18.0001 32.2813C18.0001 24.5272 24.3085 18.2188 32.0625 18.2188C39.8166 18.2188 46.125 24.5272 46.125 32.2813C46.125 40.0353 39.8166 46.3438 32.0625 46.3438Z" fill="url(#paint5_linear_34_1134)"/>
</g>
<defs>
<linearGradient id="paint0_linear_34_1134" x1="32.0581" y1="24.5188" x2="32.0581" y2="39.8407" gradientUnits="userSpaceOnUse">
<stop stop-color="#28CBFF"/>
<stop offset="1" stop-color="#28C4A9"/>
</linearGradient>
<linearGradient id="paint1_linear_34_1134" x1="40.1212" y1="21.1985" x2="40.1212" y2="38.496" gradientUnits="userSpaceOnUse">
<stop stop-color="#28CBFF"/>
<stop offset="1" stop-color="#28C4A9"/>
</linearGradient>
<linearGradient id="paint2_linear_34_1134" x1="33.4981" y1="20.0938" x2="33.4981" y2="21.9689" gradientUnits="userSpaceOnUse">
<stop stop-color="#28CBFF"/>
<stop offset="1" stop-color="#28C4A9"/>
</linearGradient>
<linearGradient id="paint3_linear_34_1134" x1="24.0035" y1="26.0666" x2="24.0035" y2="43.364" gradientUnits="userSpaceOnUse">
<stop stop-color="#28CBFF"/>
<stop offset="1" stop-color="#28C4A9"/>
</linearGradient>
<linearGradient id="paint4_linear_34_1134" x1="30.6269" y1="42.5936" x2="30.6269" y2="44.4688" gradientUnits="userSpaceOnUse">
<stop stop-color="#28CBFF"/>
<stop offset="1" stop-color="#28C4A9"/>
</linearGradient>
<linearGradient id="paint5_linear_34_1134" x1="24" y1="0.78125" x2="24" y2="48.2188" gradientUnits="userSpaceOnUse">
<stop stop-color="#28CBFF"/>
<stop offset="1" stop-color="#28C4A9"/>
</linearGradient>
<clipPath id="clip0_34_1134">
<rect width="48" height="48" fill="white" transform="translate(0 0.5)"/>
</clipPath>
</defs>
</svg>
