<svg width="59" height="59" viewBox="0 0 59 59" fill="none" xmlns="http://www.w3.org/2000/svg">
<path d="M57.5101 29.0143C57.5101 37.6398 53.6778 45.3693 47.6252 50.5978C42.6341 54.9016 36.1281 57.5068 29.0176 57.5068C21.9071 57.5068 15.4047 54.9016 10.41 50.5942C4.35383 45.3693 0.521484 37.6398 0.521484 29.0143C0.521484 13.2783 13.278 0.52179 29.0176 0.52179C44.7572 0.52179 57.5101 13.2747 57.5101 29.0143Z" fill="white"/>
<path d="M29.0179 58.0286C22.0621 58.0286 15.333 55.5277 10.0685 50.99C3.67041 45.47 0 37.4599 0 29.0143C0 13.0156 13.0156 0 29.0179 0C45.0202 0 58.0321 13.0156 58.0321 29.0143C58.0321 37.4563 54.3653 45.4664 47.9673 50.9936C42.7063 55.5313 35.9773 58.0286 29.0179 58.0286ZM29.0179 1.04716C13.5949 1.04716 1.04712 13.5949 1.04712 29.0143C1.04712 37.154 4.58438 44.8727 10.7521 50.1948C15.8259 54.5705 22.314 56.9815 29.0179 56.9815C35.7218 56.9815 42.2098 54.5741 47.2836 50.1984C53.4478 44.8727 56.985 37.1504 56.985 29.0143C56.985 13.5913 44.4372 1.04716 29.0179 1.04716Z" fill="url(#paint0_linear_32_782)"/>
<path d="M29.018 39.0108C34.5389 39.0108 39.0145 34.5352 39.0145 29.0143C39.0145 23.4934 34.5389 19.0178 29.018 19.0178C23.4971 19.0178 19.0215 23.4934 19.0215 29.0143C19.0215 34.5352 23.4971 39.0108 29.018 39.0108Z" fill="url(#paint1_linear_32_782)"/>
<path d="M47.6253 50.5942C42.6343 54.898 36.1283 57.5032 29.0177 57.5032C21.9072 57.5032 15.4048 54.898 10.4102 50.5906C13.4904 45.4628 20.6621 41.868 29.0177 41.868C37.3733 41.868 44.545 45.4628 47.6253 50.5942Z" fill="url(#paint2_linear_32_782)"/>
<defs>
<linearGradient id="paint0_linear_32_782" x1="-1169.9" y1="24.3399" x2="106.14" y2="29.313" gradientUnits="userSpaceOnUse">
<stop stop-color="#BA9FC9"/>
<stop offset="0.52" stop-color="#E0B5AA"/>
<stop offset="1" stop-color="#718FBF"/>
</linearGradient>
<linearGradient id="paint1_linear_32_782" x1="-1169.9" y1="24.3399" x2="106.14" y2="29.313" gradientUnits="userSpaceOnUse">
<stop stop-color="#BA9FC9"/>
<stop offset="0.52" stop-color="#E0B5AA"/>
<stop offset="1" stop-color="#718FBF"/>
</linearGradient>
<linearGradient id="paint2_linear_32_782" x1="-1169.98" y1="45.013" x2="106.06" y2="49.9861" gradientUnits="userSpaceOnUse">
<stop stop-color="#BA9FC9"/>
<stop offset="0.52" stop-color="#E0B5AA"/>
<stop offset="1" stop-color="#718FBF"/>
</linearGradient>
</defs>
</svg>
