<svg width="48" height="49" viewBox="0 0 48 49" fill="none" xmlns="http://www.w3.org/2000/svg">
<g clip-path="url(#clip0_34_1154)">
<path d="M24.9375 38.5625C24.9375 39.0803 24.5178 39.5 24 39.5C23.4822 39.5 23.0625 39.0803 23.0625 38.5625C23.0625 38.0447 23.4822 37.625 24 37.625C24.5178 37.625 24.9375 38.0447 24.9375 38.5625Z" fill="url(#paint0_linear_34_1154)"/>
<path d="M44.9062 30.125C44.9062 27.0232 42.3831 24.5 39.2812 24.5C36.1794 24.5 33.6562 27.0232 33.6562 30.125C33.6562 33.2268 36.1794 35.75 39.2812 35.75C42.3831 35.75 44.9062 33.2268 44.9062 30.125ZM39.2812 33.875C37.2136 33.875 35.5312 32.1926 35.5312 30.125C35.5312 28.0574 37.2136 26.375 39.2812 26.375C41.3489 26.375 43.0312 28.0574 43.0312 30.125C43.0312 32.1926 41.3489 33.875 39.2812 33.875Z" fill="url(#paint1_linear_34_1154)"/>
<path d="M39.2812 35.75C36.9188 35.75 34.563 36.7307 32.9583 38.3208C30.8459 35.5449 27.5889 33.875 24 33.875C20.5631 33.875 17.2328 35.4431 15.0421 38.3208C13.437 36.7311 11.0815 35.75 8.71875 35.75C3.9928 35.75 0 39.6139 0 44.1875V46.0625C0 46.5803 0.419678 47 0.9375 47H47.0625C47.5803 47 48 46.5803 48 46.0625V44.1875C48 39.6139 44.0072 35.75 39.2812 35.75ZM1.875 44.1875C1.875 40.6301 5.00903 37.625 8.71875 37.625C10.7487 37.625 12.7617 38.5244 14.0079 39.9541C13.184 41.5457 12.75 43.3196 12.75 45.125H1.875V44.1875ZM24 35.75C29.2167 35.75 33.375 39.9827 33.375 45.125H14.625C14.625 39.9142 18.8683 35.75 24 35.75ZM46.125 45.125H35.25C35.25 43.3196 34.816 41.5457 33.9921 39.9541C35.2383 38.5244 37.2513 37.625 39.2812 37.625C42.991 37.625 46.125 40.6301 46.125 44.1875V45.125Z" fill="url(#paint2_linear_34_1154)"/>
<path d="M14.3438 30.125C14.3438 27.0232 11.8206 24.5 8.71875 24.5C5.61694 24.5 3.09375 27.0232 3.09375 30.125C3.09375 33.2268 5.61694 35.75 8.71875 35.75C11.8206 35.75 14.3438 33.2268 14.3438 30.125ZM8.71875 33.875C6.65112 33.875 4.96875 32.1926 4.96875 30.125C4.96875 28.0574 6.65112 26.375 8.71875 26.375C10.7864 26.375 12.4688 28.0574 12.4688 30.125C12.4688 32.1926 10.7864 33.875 8.71875 33.875Z" fill="url(#paint3_linear_34_1154)"/>
<path d="M31.5 26.375C31.5 22.2394 28.1356 18.875 24 18.875C19.8644 18.875 16.5 22.2394 16.5 26.375C16.5 30.5106 19.8644 33.875 24 33.875C28.1356 33.875 31.5 30.5106 31.5 26.375ZM24 32C20.8982 32 18.375 29.4768 18.375 26.375C18.375 23.2732 20.8982 20.75 24 20.75C27.1018 20.75 29.625 23.2732 29.625 26.375C29.625 29.4768 27.1018 32 24 32Z" fill="url(#paint4_linear_34_1154)"/>
<path d="M31.4194 7.45251C31.3092 7.11304 31.0159 6.86584 30.6625 6.81458L26.6188 6.22754L24.8082 2.52588C24.6511 2.20398 24.3245 2 23.9663 2C23.6081 2 23.2815 2.20398 23.124 2.52551L21.3138 6.22754L17.2701 6.81421C16.9167 6.86548 16.6234 7.11304 16.5132 7.45251C16.4029 7.79199 16.4949 8.16443 16.7505 8.41345L19.6787 11.2673L18.9877 15.2975C18.9272 15.649 19.0719 16.0046 19.3608 16.2141C19.6479 16.4229 20.0303 16.4525 20.3481 16.2855L23.9663 14.3831L27.5859 16.2855C27.9016 16.4518 28.2843 16.424 28.5732 16.2141C28.8618 16.0043 29.0065 15.649 28.946 15.2971L28.2543 11.2673L31.1821 8.41345C31.4377 8.16443 31.5297 7.79199 31.4194 7.45251ZM26.592 10.2687C26.3712 10.484 26.2701 10.7946 26.3225 11.0985L26.7762 13.7422L24.4025 12.4941C24.1293 12.3506 23.803 12.3506 23.5298 12.4941L21.1567 13.7422L21.6101 11.0985C21.6621 10.7942 21.561 10.484 21.3402 10.2687L19.4198 8.39697L22.073 8.01172C22.3799 7.96741 22.6446 7.77405 22.7805 7.49573L23.9663 5.07141L25.1517 7.49573C25.288 7.77441 25.5527 7.96741 25.8592 8.01172L28.5128 8.39697L26.592 10.2687Z" fill="url(#paint5_linear_34_1154)"/>
<path d="M45.432 14.479C45.3218 14.1395 45.0284 13.8923 44.675 13.8411L41.9354 13.443L40.7104 10.9601C40.5526 10.64 40.227 10.4375 39.87 10.4375C39.87 10.4375 39.87 10.4375 39.8696 10.4375C39.5129 10.4375 39.187 10.64 39.0292 10.9601L37.8034 13.443L35.0635 13.8411C34.7104 13.8923 34.4171 14.1395 34.3069 14.479C34.1963 14.8185 34.2882 15.1909 34.5438 15.4399L36.5261 17.3732L36.0581 20.1014C35.998 20.453 36.1423 20.8082 36.4313 21.0181C36.7198 21.2279 37.1025 21.2557 37.4182 21.0898L39.8696 19.8019L42.3203 21.0898C42.636 21.2557 43.019 21.2279 43.3076 21.0181C43.5962 20.8086 43.7405 20.453 43.6804 20.1014L43.2124 17.3732L45.195 15.4399C45.4507 15.1909 45.5422 14.8185 45.432 14.479ZM41.5509 16.3749C41.3297 16.5902 41.229 16.9004 41.2814 17.2043L41.5113 18.5461L40.3061 17.913C40.0329 17.7694 39.7066 17.7694 39.4338 17.913L38.2275 18.5465L38.4579 17.2043C38.5099 16.9004 38.4092 16.5902 38.1883 16.3749L37.2127 15.4235L38.5608 15.2279C38.8662 15.1836 39.1302 14.9917 39.2668 14.7152L39.8696 13.4939L40.472 14.7148C40.6086 14.9917 40.8727 15.1836 41.1781 15.2279L42.5261 15.4235L41.5509 16.3749Z" fill="url(#paint6_linear_34_1154)"/>
<path d="M13.557 14.479C13.4468 14.1395 13.1534 13.8923 12.8 13.8411L10.0604 13.443L8.83543 10.9601C8.67759 10.64 8.35203 10.4375 7.99497 10.4375C7.63792 10.4375 7.31199 10.64 7.15415 10.9601L5.92845 13.443L3.18846 13.8411C2.83543 13.8923 2.54209 14.1395 2.43186 14.479C2.32127 14.8185 2.41319 15.1909 2.6688 15.4399L4.6511 17.3732L4.18345 20.1014C4.12303 20.453 4.26768 20.8082 4.55625 21.0181C4.84483 21.2279 5.22752 21.2557 5.54356 21.0898L7.99461 19.8019L10.4453 21.0898C10.7632 21.2568 11.1455 21.2268 11.4326 21.0181C11.7212 20.8086 11.8658 20.453 11.8054 20.1014L11.3374 17.3732L13.32 15.4399C13.5757 15.1909 13.6672 14.8185 13.557 14.479ZM9.67552 16.3749C9.45469 16.5902 9.35398 16.9004 9.40598 17.2043L9.63633 18.5461L8.43076 17.913C8.15794 17.7694 7.83164 17.7694 7.55882 17.913L6.35215 18.5465L6.5825 17.2043C6.63487 16.9004 6.53379 16.5902 6.31297 16.3749L5.33738 15.4235L6.68577 15.2279C6.99082 15.1836 7.25486 14.9917 7.39146 14.7152L7.99424 13.4939L8.59666 14.7148C8.73325 14.9917 8.99729 15.1836 9.30271 15.2279L10.6507 15.4235L9.67552 16.3749Z" fill="url(#paint7_linear_34_1154)"/>
<path d="M28.1082 38.8525C27.6753 38.568 27.0941 38.6885 26.81 39.1213C26.5254 39.5538 26.6459 40.135 27.0788 40.4196C27.9456 40.989 28.6385 41.783 29.0823 42.7153C29.3042 43.1823 29.8631 43.3818 30.3315 43.1588C30.7991 42.9365 30.9976 42.377 30.7753 41.9097C30.1842 40.6675 29.2617 39.6102 28.1082 38.8525Z" fill="url(#paint8_linear_34_1154)"/>
</g>
<defs>
<linearGradient id="paint0_linear_34_1154" x1="24" y1="37.625" x2="24" y2="39.5" gradientUnits="userSpaceOnUse">
<stop stop-color="#28CBFF"/>
<stop offset="1" stop-color="#28C4A9"/>
</linearGradient>
<linearGradient id="paint1_linear_34_1154" x1="39.2812" y1="24.5" x2="39.2812" y2="35.75" gradientUnits="userSpaceOnUse">
<stop stop-color="#28CBFF"/>
<stop offset="1" stop-color="#28C4A9"/>
</linearGradient>
<linearGradient id="paint2_linear_34_1154" x1="24" y1="33.875" x2="24" y2="47" gradientUnits="userSpaceOnUse">
<stop stop-color="#28CBFF"/>
<stop offset="1" stop-color="#28C4A9"/>
</linearGradient>
<linearGradient id="paint3_linear_34_1154" x1="8.71875" y1="24.5" x2="8.71875" y2="35.75" gradientUnits="userSpaceOnUse">
<stop stop-color="#28CBFF"/>
<stop offset="1" stop-color="#28C4A9"/>
</linearGradient>
<linearGradient id="paint4_linear_34_1154" x1="24" y1="18.875" x2="24" y2="33.875" gradientUnits="userSpaceOnUse">
<stop stop-color="#28CBFF"/>
<stop offset="1" stop-color="#28C4A9"/>
</linearGradient>
<linearGradient id="paint5_linear_34_1154" x1="23.9663" y1="2" x2="23.9663" y2="16.3933" gradientUnits="userSpaceOnUse">
<stop stop-color="#28CBFF"/>
<stop offset="1" stop-color="#28C4A9"/>
</linearGradient>
<linearGradient id="paint6_linear_34_1154" x1="39.8693" y1="10.4375" x2="39.8693" y2="21.1973" gradientUnits="userSpaceOnUse">
<stop stop-color="#28CBFF"/>
<stop offset="1" stop-color="#28C4A9"/>
</linearGradient>
<linearGradient id="paint7_linear_34_1154" x1="7.99434" y1="10.4375" x2="7.99434" y2="21.1974" gradientUnits="userSpaceOnUse">
<stop stop-color="#28CBFF"/>
<stop offset="1" stop-color="#28C4A9"/>
</linearGradient>
<linearGradient id="paint8_linear_34_1154" x1="28.7611" y1="38.6983" x2="28.7611" y2="43.2502" gradientUnits="userSpaceOnUse">
<stop stop-color="#28CBFF"/>
<stop offset="1" stop-color="#28C4A9"/>
</linearGradient>
<clipPath id="clip0_34_1154">
<rect width="48" height="48" fill="white" transform="translate(0 0.5)"/>
</clipPath>
</defs>
</svg>
